<?xml version="1.0" encoding="UTF-8"?><svg id="Layer_1" xmlns="http://www.w3.org/2000/svg" viewBox="0 0 512 512"><defs><style>.cls-1{fill:#fff;}.cls-1,.cls-2{stroke-width:0px;}.cls-2{fill:#ee455b;}</style></defs><rect class="cls-1" x="3.38" y="2.07" width="505.24" height="507.85" rx="71.33" ry="71.33"/><path class="cls-2" d="m471.94,251c.23,13.66-3.43,25.93-8.29,37.91-.46,1.14-.49,2.14-.1,3.22,4.94,13.97,6.82,28.4,6.08,43.15-.55,10.91-3.4,21.32-7.87,31.24-5.06,11.23-12.11,21.13-21.13,29.56-10.53,9.84-22.79,16.56-36.67,20.48-10.26,2.9-20.74,3.82-31.26,2.93-13.68-1.16-26.48-5.53-38.46-12.31-7.76-4.39-14.67-9.94-21.77-15.25-11.43-8.56-23.93-14.87-38.15-17.3-14.15-2.42-28.21-2.35-42.04,1.96-10.25,3.19-19.46,8.35-27.96,14.91-8.69,6.71-17.57,13.17-27.45,18.1-9.97,4.97-20.4,8.38-31.47,9.75-21.91,2.72-42.52-1.18-61.51-12.52-19.73-11.78-33.51-28.36-39.44-50.86-2.75-10.42-2.96-21-1.07-31.63.7-3.93,1.56-7.8,2.65-11.63.21-.75.18-1.34-.17-2-3.06-5.74-5.37-11.8-7.11-18.05-1.41-5.06-2.52-10.19-3.14-15.44-.97-8.22-1.01-16.45-.22-24.63,1.62-16.82,7.34-32.21,16.95-46.18,8.56-12.44,19.57-22.12,32.66-29.52,1.48-.83,2.39-1.91,3.01-3.45,4.7-11.76,10.44-22.97,18.26-32.98,16.95-21.68,38.62-36.04,65.71-41.79,7.44-1.58,14.99-2.25,22.6-2.11,1.56.03,2.89-.28,4.24-1.25,12.02-8.59,25.35-13.98,39.98-16.23,17.05-2.62,33.85-1.81,50.44,3.03,10.32,3.01,20.04,7.31,29.08,13.12,1.32.85,2.68,1.24,4.31,1.18,11.41-.36,21.66,2.97,30.57,10.12,5.33,4.28,9.15,9.75,11.54,16.15.63,1.7,1.5,2.69,3.36,3.11,13.31,3.03,24.65,9.63,34.14,19.37,9.05,9.28,14.6,20.49,17.5,33.03.5,2.14,1.51,3.18,3.42,3.88,7.67,2.85,14.59,7.05,20.93,12.14,13.89,11.16,23.14,25.28,26.56,42.93.92,4.74,1.48,9.53,1.28,13.83Zm-212.19-20.98s.04,0,.07,0c0,7.24,0,14.48,0,21.73,0,2.34.03,2.32,2.35,2.33,13.78.08,27.56-.22,41.34.57,12.82.73,25.34,2.76,37.45,7.09,11.78,4.21,22.28,10.54,31.52,18.99,11.7,10.69,19.96,23.55,24.5,38.73,2.52,8.42,1.74,16.46-3.8,23.6-5.11,6.58-13.44,9.5-21.48,4.97-2.64-1.49-4.98-3.35-7.28-5.23-4.59-3.75-8.79-7.95-13.38-11.7-6.8-5.56-13.99-10.51-21.87-14.45-10.14-5.07-20.74-8.65-31.88-10.81-7.18-1.39-14.42-2.27-21.69-2.61-20-.92-39.88-.32-59.44,4.76-9.26,2.41-17.99,6.05-26.3,10.62-5.38,2.96-10.49,6.42-15.41,10.18-5.38,4.11-10.62,8.39-15.96,12.54-5.46,4.23-10.95,8.33-17.72,10.36-9.26,2.77-17.61,1.47-24.89-5.1-5.92-5.34-9.45-12.21-12.18-19.53-.67-1.8-1.69-3.11-3.22-4.23-5.11-3.73-10.15-7.48-14.44-12.26-2.41-2.69-4.62-5.53-6.76-8.37-2.59-3.44-4.61-7.34-6.27-11.37-5.75-14.04-6.58-28.52-3.6-43.24,2.69-13.24,9.31-24.25,19.86-32.77,7.96-6.43,17.31-9.79,27.25-11.54,2.08-.37,2.02-1.51,2.16-2.88,1.25-11.67,4.67-22.61,10.76-32.69,10.64-17.61,25.78-29.25,45.71-34.59.94-.25,1.55-.65,1.6-1.77.05-1.11.32-2.2.49-3.3.68-4.19,2.14-8.15,3.54-12.13.34-.98.29-1.35-.97-1.24-5.28.48-10.41,1.61-15.44,3.25-16.66,5.42-30.22,15.37-41.61,28.48-10.57,12.17-17.28,26.19-19.98,42.09-.17.99-.75,1.33-1.58,1.61-4.79,1.61-9.41,3.6-13.84,6.05-13.75,7.61-23.02,19.2-29.53,33.21-1.32,2.84-2.37,5.81-3.24,8.83-1.33,4.62-2.42,9.29-2.99,14.06-.45,3.82-.24,7.68-.35,11.53-.09,3.27.02,6.56.44,9.76.57,4.4,1.46,8.78,2.71,13.06,5.55,18.94,15.59,34.83,31.81,46.46,1.49,1.07,2.48,2.34,3.24,4,4.66,10.27,10.89,19.33,20.32,25.87,9.07,6.29,19.02,8.64,29.93,6.7,7.94-1.41,14.99-4.87,21.65-9.26,6.36-4.2,11.85-9.47,17.74-14.25,15.54-12.59,32.8-21.42,52.63-24.94,11.85-2.1,23.76-2.33,35.74-1.87,8.5.32,16.91,1.35,25.24,2.97,4.79.94,9.46,2.37,14.08,3.99,9.96,3.5,19.07,8.52,27.51,14.85,7.63,5.72,14.64,12.18,21.94,18.3,4.48,3.76,9.39,6.84,15.15,7.97,15.19,2.99,27.66-1.8,37.11-13.98,7.26-9.36,9.56-20.14,8.06-31.8-1.33-10.28-5.42-19.55-10.59-28.39-5.22-8.94-11.73-16.81-19.28-23.93-9.04-8.53-19.13-15.35-30.46-20.42-15.15-6.79-31.17-10-47.59-11.37-9.86-.83-19.77-.72-29.67-.55-1.55.03-1.89-.46-1.88-1.88.04-8.83,0-17.66,0-26.5,0-6.53-1.54-12.75-4.62-18.45-6.89-12.72-17.67-20.26-31.84-23.02-5.76-1.12-11.56-2.08-16.95-4.58-6.06-2.81-10.74-7.01-12.99-13.45-3.3-9.45.3-20.46,8.72-27.1,7.31-5.76,15.77-8.69,24.88-10.04,15.33-2.27,30.14-.55,44.38,5.69,7.12,3.12,13.73,7.23,20.59,10.84,5.67,2.98,11.45,4.07,17.67,1.99,5.74-1.92,11.46-3.97,17.58-4.42,2.09-.15,2.19-.39,1.2-2.23-2.98-5.55-7.96-8.22-13.89-9.37-4.79-.93-9.63-.38-14.45-.18-1.23.05-2.25-.2-3.23-1.04-7.27-6.16-15.63-10.39-24.56-13.56-9.17-3.25-18.65-4.85-28.36-5.2-12.65-.45-25,1.06-36.91,5.54-12.95,4.87-22.94,12.98-28.33,26.05-4.81,11.67-4.94,23.26,1.17,34.52,5.86,10.82,15.54,16.66,27.03,19.96,4.97,1.43,10.2,1.69,15.15,3.22,12.58,3.89,20.67,12.94,20.45,27.36-.1,6.3-.02,12.6-.02,18.9Zm118.32,173.58c21.2-.12,38.54-7.27,53.14-20.97,8.76-8.22,14.36-18.45,18-29.84,5.45-17.05,4.57-33.97-.83-50.83-2.09-6.51-4.83-12.74-7.85-18.86-3.11-6.28-6.62-12.32-10.58-18.09-4.42-6.44-9.46-12.41-14.34-18.5-4.62-5.76-10.12-10.63-16.05-15.01-3.74-2.76-7.69-5.17-11.8-7.33-1.02-.54-1.43-1.35-.54-2.26,1.37-1.4,2.32-3.1,3.51-4.63,5.01-6.45,8.95-13.4,10.9-21.45,4.65-19.2-3.89-38.03-20.72-47.74-12.91-7.45-26.66-8.8-41.05-4.83-14.44,3.99-24.91,12.99-32.76,25.37-6.09,9.6-9.81,20.18-12.23,31.22-1.11,5.06-1.59,10.23-1.81,15.42-.04,1.01.02,1.97,1.35,2.04,4.41.23,8.8.81,13.23.51,1.45-.1,2.03-.65,2.13-2.14.31-4.81.81-9.6,1.9-14.32,2.91-12.58,8.1-23.98,17.7-32.86,10.44-9.65,22.65-13.27,36.47-8.71,11.2,3.69,17.89,11.6,19.48,23.38,1.01,7.53-1.67,14.25-5.62,20.49-3.48,5.51-7.82,10.39-11.95,15.41-2.09,2.54-4.1,5.15-5.41,8.2-.88,2.06-.49,3.06,1.49,3.97,2.19,1.01,4.42,1.91,6.61,2.91,8.55,3.89,16.49,8.74,23.68,14.81,7.8,6.58,14.1,14.46,19.79,22.86,7.01,10.35,13.31,21.09,17.14,33.08,3.48,10.87,5.46,21.93,3.25,33.36-3.08,15.92-10.51,29.11-24.33,38.15-8.67,5.67-18.27,8.62-28.62,8.93-10.17.31-19.44-2.93-28.34-7.51-8.11-4.18-14.95-10.18-22.16-15.62-9.7-7.31-20.21-12.91-31.73-16.71-9.35-3.08-18.95-4.8-28.71-5.44-14.85-.98-29.5.61-43.94,4.26-14.36,3.63-27.49,9.81-39.45,18.55-7.35,5.37-14.54,10.98-22.68,15.2-17.24,8.93-35.02,11.53-53.67,4.94-12.02-4.25-21.46-11.89-28.91-22.12-2.59-3.56-4.53-7.5-6.76-11.28-3.8-6.44-9.67-11.08-14.84-16.31-.35-.35-.66-1.04-1.24-.75-.51.25-.31.95-.33,1.45-.42,7.65.8,15,3.45,22.22,3.09,8.41,7.43,16.03,13.48,22.62,4.82,5.25,10.21,9.88,16.38,13.48,25.52,14.87,51.48,14.73,77.74,2.03,8.42-4.07,15.92-9.57,23.21-15.34,10.07-7.97,21.1-14.11,33.37-17.87,11.1-3.41,22.45-5.12,34.13-4.68,12.4.46,24.48,2.44,36.06,6.94,3.93,1.53,7.74,3.47,11.41,5.57,5.59,3.2,10.78,7.03,15.9,10.94,6.91,5.28,13.84,10.49,21.55,14.6,10.62,5.65,21.77,9.12,32.82,9.11Zm-106.03-132.75c-8.66,0-17.67.01-26.68,0-2.9,0-2.93-.05-2.9-2.9.12-11.01.32-22.02.37-33.02.04-8.51-2.27-16.39-7.92-22.85-9.8-11.21-22.31-14.89-36.81-12.19-5.91,1.1-11.55,3.21-17.34,4.79-4.5,1.23-8.97,2.39-13.71,2.04-3.69-.28-6.79-1.74-9.48-4.2-3.33-3.05-4.64-7.19-6.14-11.23-.11-.3-.06-.52.06-.81,1.86-4.83,4.6-9.06,9.18-11.63,3.97-2.23,7.23-2.36,9.73,2.02,1.43,2.52,3.1,4.88,4.85,7.19.84,1.11,1.79,1.26,2.89.8,3.6-1.5,6.76-3.69,9.77-6.17,1.34-1.11,1.21-1.87.23-3.09-4.03-5.04-7.21-10.65-9.8-16.52-1.14-2.57-2.8-3.73-5.35-4.01-5.19-.57-10.2.37-14.94,2.35-6.77,2.83-11.94,7.68-16.07,13.7-2.54,3.71-4.39,7.75-5.51,12.06-1.51,5.79-2.31,11.69-.04,17.49,1.96,5,5.5,8.82,9.58,12.23,8.13,6.79,17.33,9.43,27.79,7.55,6.92-1.25,13.5-3.67,20.15-5.81,4.51-1.45,9.05-2.58,13.85-2.01,7.91.94,16.05,7.83,16.4,16.37.12,2.94.09,5.88.1,8.83.04,9.36.06,18.72.1,28.08,0,.77.14,1.42-1.07,1.53-3.67.33-7.34.48-10.98,1.25-4.15.88-8.38,1.25-12.53,2.37-3.3.89-6.44,2.07-9.51,3.45-4.19,1.88-8.06,4.32-11.66,7.24-3.51,2.84-6.44,6.14-8.96,9.84-.59.87-.6,1.6.24,2.47,2.18,2.26,4.25,4.64,6.34,6.99.53.6,1.28,1,1.79.4.55-.64,1.29-.88,1.88-1.38,7.23-6.2,15.29-10.84,24.56-13.36,6.15-1.67,12.41-2.46,18.72-2.65,11.66-.35,23.32-.53,34.98-.45,14.84.1,29.67-.23,44.49,1.06,20.38,1.78,37.81,10.2,52.92,23.52,5.84,5.14,11.52,10.63,15.73,17.34.4.63,1.01,1.14,1.58,1.65,1.42,1.27,2.92,1.27,4.55.34,2.82-1.61,4.33-6.36,3.06-9.47-2.22-5.46-5.64-10.15-9.11-14.85-5.31-7.19-11.16-13.78-18.68-18.76-14.01-9.28-29.47-14.49-46.1-16.37-11.38-1.28-22.8-1.37-34.58-1.18Zm-172.76-3.8c-.04-2.32.23-4.6.74-6.84,1.64-7.31,5.09-13.41,11.93-17.07,5.1-2.73,11.67-1.88,15.27,1.82,1.55,1.6,1.48,2.69-.39,3.8-4.29,2.55-7.6,6.1-10.36,10.18-1.76,2.6-3.24,5.39-3.16,8.65.12,5.21,5.52,11.02,10.7,11.72.96.13,1.25-.52,1.63-1.06,1.77-2.52,2.96-5.35,4.09-8.19,2.01-5.03,4.18-10,7.43-14.34,2.77-3.7,5.83-7.21,9.28-10.32.84-.75,1-1.35.41-2.38-1.09-1.89-2.22-3.74-3.54-5.47-4.62-6.05-10.22-10.9-17.84-12.45-12.69-2.57-23.28,1.67-31.57,11.28-10.07,11.67-12.23,25.64-10.37,40.42.75,5.94,3.32,11.39,6.28,16.58,2.8,4.91,6.57,9.04,10.74,12.85,3.58,3.28,7.66,5.86,11.51,8.77,4.01,3.03,7.28,6.62,9.24,11.36,1.05,2.54,2.02,5.13,3.49,7.5,2.2,3.56,6.68,5.67,10.45,4.55,4.01-1.19,6.6-3.87,6.58-9.05-.01-5.26-2.55-9.51-5.66-13.49-4.59-5.86-10.62-10.2-16.16-15.05-1.72-1.51-3.67-2.75-5.45-4.2-9.36-7.65-14.85-17.3-15.25-29.56Zm47.85,32.98s0-.02,0-.03c.53.03,1.06.06,1.59.1,3.23.23,2.65.59,3.21-2.56.03-.17.03-.35.06-.53,1.7-9.89,6.17-18.23,14.06-24.54,12.3-9.83,26.6-15.13,41.9-18.02,1.23-.23,1.7-.58,1.67-1.86-.13-4.71-.74-9.36-1.44-14.01-.17-1.16-.85-1.21-1.77-1.09-5.93.8-11.77,2.04-17.48,3.83-14.06,4.43-26.99,10.8-37.47,21.5-9.51,9.71-14.8,21.32-16.11,34.81-.13,1.29.21,1.76,1.56,1.81,3.41.12,6.82.38,10.23.59Zm308.33-50.08c-.07-5.44-.75-10.79-2.54-15.96-3.39-9.77-9.07-17.96-17.03-24.59-6.28-5.22-13.39-8.87-21.05-11.55-1.33-.46-2.27-.27-2.65,1.3-1.18,4.85-2.35,9.71-3.24,14.63-.26,1.46.19,2.39,1.7,2.75,4.75,1.13,9.04,3.22,12.93,6.18,5.63,4.27,9.77,9.59,11.95,16.39,1.34,4.17,1.5,8.42,1.29,12.73-.06,1.16.11,2.15,1.02,3.04,4.37,4.32,8.09,9.14,11.18,14.46.33.58.64,1.39,1.49,1.36.95-.04,1.12-.91,1.4-1.62,2.43-6.14,3.63-12.51,3.56-19.12Zm-128.26-34.16c0,.65.06,1.66-.02,2.65-.1,1.28.49,1.8,1.68,1.97,4.26.59,8.45,1.54,12.65,2.44,2.16.46,2.31.3,2.32-1.91.04-6.04.71-11.99,2.94-17.66,1.65-4.19,4.07-7.72,8.7-9.07,2.12-.62,4.31-.53,6.49-.53.88,0,1.76.1,2.61-.28,3.55-1.61,5.6-9.56,3.24-12.65-.35-.46-.8-.86-1.27-1.2-4.79-3.44-10.13-3.6-15.53-2.15-7.83,2.11-13.65,7.04-17.63,13.99-4.25,7.41-5.73,15.61-6.17,24.38Zm-74.09-86.43c-1.64.1-3.29.18-4.93.31-4.53.37-9.03.9-13.21,2.83-2.62,1.2-5.24,2.44-6.96,4.94-2.91,4.25-.87,9.2,4.19,9.95,4.25.63,8.57.43,12.85.69,3.98.24,7.89.77,11.3,2.96,1.6,1.03,2.36.71,3.32-.77,3.81-5.9,8.26-11.28,13.35-16.13,1.03-.98.84-1.46-.45-1.89-6.32-2.12-12.85-2.78-19.46-2.88Zm50.33,18.85c-.05-.6-.6-.9-1.04-1.26-3.41-2.79-6.94-5.42-10.67-7.77-2.14-1.35-2.2-1.36-3.79.71-4.82,6.26-8.83,13.02-12.44,20.03-1.24,2.41-1.2,2.42.99,3.94,2.51,1.75,4.85,3.73,6.85,6.05,2.52,2.93,2.5,2.98,4.49-.34,4.31-7.18,9.41-13.77,14.84-20.13.3-.35.7-.64.78-1.23Z"/></svg>