<?xml version="1.0" encoding="UTF-8"?><svg id="Layer_1" xmlns="http://www.w3.org/2000/svg" viewBox="0 0 512 512"><defs><style>.cls-1{stroke-width:0px;}</style></defs><path class="cls-1" d="m279.24,406.75c.12-7.27.83-14.49,1.96-21.67.18-1.11-.13-1.59-1.15-1.97-3.02-1.14-5.72-2.84-8.3-4.78-2.67-2.01-3.63-1.67-5.67-.11-4.16,3.17-8.78,5.3-13.87,6.44-.67.15-1.29.2-.98,1.23,3.65,12.09,3.34,24.28.81,36.51-1.58,7.61-3.01,15.27-5.87,22.55-.78,1.98-1.65,3.91-2.98,5.6-1.26,1.59-2.82,2.56-4.91,2.04-2.09-.52-3.01-2.1-3.35-4.12-.39-2.41-.11-4.79.25-7.17,1.1-7.23,3.14-14.27,4.55-21.43,1.84-9.35,2.37-18.68.12-28.05-.47-1.95-1.5-3.65-2.1-5.54-.23-.72-.91-.54-1.45-.59-5.05-.4-9.99-1.36-14.73-3.2-8.76-3.41-15.37-9.39-20.35-17.25-.7-1.1-1.06-1.23-2.16-.41-11.9,8.97-24.93,15.57-39.67,18.36-7.11,1.35-14.09.65-20.77-2.29-12.22-5.38-18.95-16.32-18.25-29.64.25-4.75,1.24-9.34,2.9-13.78.46-1.23.15-1.48-1.06-1.6-9.73-.98-18.7-3.91-26.25-10.4-4.5-3.87-7.96-8.55-10.61-13.82-8.42-16.77-11.2-34.4-7.57-52.88,2.92-14.87,10.69-26.81,22.46-36.24,1.14-.91,2.28-1.82,3.44-2.71.51-.39.69-.69.11-1.21-6.62-5.92-9.86-13.69-11.86-22.06-2.48-10.36-3.13-20.79-.25-31.2,4.49-16.21,18.9-28.68,35.43-30.73,6.95-.86,13.29.83,19.07,4.68,1.05.7,1.5.66,2.06-.54,2.13-4.52,5.07-8.51,8.72-11.92,9.59-8.95,20.51-15.56,33.58-17.92,7.23-1.31,14.25-.22,20.44,3.99,1.68,1.14,2.81,1.4,4.68.45,2.63-1.32,5.15-2.73,7.45-4.56,4.4-3.51,9.08-6.57,14.1-9.13,6.8-3.46,14.12-4.82,21.62-5.64,8.33-.91,16.64-1.13,24.95-.01,5.42.73,10.65,2.13,15.44,4.81,6.25,3.5,12.76,6.53,18.72,10.54,2.15,1.45,4.29,2.91,6.43,4.36.51.34.94.66,1.63.15,6.7-4.89,14.32-6.24,22.19-4.53,15.5,3.37,28.3,11.35,38.13,23.89,1.37,1.74,2.51,3.66,3.4,5.7.53,1.2.98,1.41,2.14.63,6.18-4.15,12.96-5.69,20.34-4.51,4.42.71,8.59,2.17,12.52,4.27,14.25,7.63,21.93,19.62,23.25,35.63.85,10.34-.68,20.41-4.48,30.1-2.03,5.19-4.85,9.91-9.08,13.64-.69.61-.66.95.06,1.49,2.91,2.18,5.68,4.51,8.31,7.03,11.6,11.09,17.5,24.83,18.73,40.65,1.21,15.54-1.79,30.31-8.91,44.2-7.16,13.98-18.76,21.62-34.16,23.77-.98.14-1.96.28-2.95.33-1.01.04-1.17.41-.83,1.33,1.55,4.17,2.57,8.47,2.9,12.93,1.66,22.45-15.83,32.72-29.69,33.56-6.61.4-12.95-.92-19.15-3.03-10.93-3.72-21.05-8.99-30.15-16.14-.97-.76-1.21-.22-1.65.48-5.9,9.33-13.93,15.88-24.69,18.84-5.49,1.51-11.1,2.17-16.79,1.92-1.42-.06-1.83.37-2.02,1.72-1.49,10.72-2.37,21.46-.95,32.27.96,7.29,3.4,14.19,5.54,21.17.6,1.94,1.24,3.86,1.37,5.91.21,3.34-1.67,5.26-4.99,5.11-.28-.01-.56,0-.84.06-2.63.54-3.66.1-4.89-2.33-3.98-7.84-6.46-16.17-8.11-24.77-1.17-6.09-1.48-12.25-1.38-18.44Zm-190.46-132.61c.18,11.74,2.84,23.09,8.77,33.59,3.23,5.71,7.69,10.17,13.82,12.65,8.06,3.26,16.52,4.01,25.13,3.61.46-.02.8-.22,1.12-.53,4.45-4.26,9.51-7.71,14.78-10.86.72-.43.96-.9.79-1.73-.52-2.65-.61-5.34-.44-8.03.35-5.42,1.47-10.65,4.3-15.38,1.56-2.6,3.55-4.78,6.52-5.79,3.04-1.04,6.1.09,7.43,2.68,1.37,2.65.52,5.58-2.21,7.52-.78.55-1.54,1.11-1.95,2-2.84,6.17-3.54,12.5-.99,18.92,1.61,4.06,4.8,6.04,9.18,6.03,2.89,0,5.72-.46,8.56-.97,1.86-.33,3.73-.63,5.61-.14,2.78.73,3.92,3.57,2.43,6.02-.78,1.27-1.89,2.22-3.12,3.03-7.92,5.19-21.76,5.78-29.53-3.21-.52-.6-.92-.7-1.67-.32-7.4,3.7-13.75,8.68-18.8,15.27-2.59,3.39-4.97,6.86-5.44,11.29-.76,7.15.89,13.31,7.11,17.62,2.63,1.83,5.56,2.98,8.72,3.49,5.37.86,10.52-.24,15.57-1.92,7.8-2.6,15.24-6.06,22.58-9.71,3.59-1.78,7.19-3.53,10.94-4.97,1.15-.44,2.34-.71,3.56-.89,1.56-.23,2.87.13,3.85,1.46,1.92,2.61,3.85,5.22,5.83,7.79,4.97,6.43,11.33,10.69,19.36,12.35,5.12,1.06,10.27,1.3,15.47.76,5.33-.55,10.2-2.24,14.43-5.59,1.4-1.11,2.69-2.37,4.16-3.39,3.23-2.24,4.71-2.44,7.78-.26,1.53,1.09,3.02,2.25,4.47,3.45,2.96,2.44,6.26,4.18,9.96,5.15,4.75,1.25,9.59,1.43,14.46,1.06,9.5-.73,17.78-4.06,24.03-11.55,1.99-2.38,3.37-5.19,5.03-7.81.72-1.14,1.56-2.06,2.83-2.64,2.12-.97,4.17-.51,6.18.19,3.92,1.36,7.64,3.22,11.36,5.06,7.77,3.85,15.63,7.53,23.92,10.17,4.02,1.28,8.14,2.18,12.38,1.78,7.07-.66,13.11-3.4,16.28-10.08,3.1-6.53,2.55-13.19-1.45-19.27-5.34-8.11-12.45-14.3-21.21-18.57-.68-.33-1.08-.3-1.56.28-7.51,8.81-21.03,8.57-29.16,3.56-1.33-.82-2.55-1.79-3.43-3.11-1.71-2.57-.51-5.57,2.49-6.27,1.21-.28,2.44-.24,3.66-.07,2.89.4,5.76,1,8.68,1.19,6.4.43,10.2-2.32,11.73-8.57,1.09-4.47.68-8.9-.61-13.26-.65-2.21-1.66-4.11-3.71-5.47-2.31-1.54-2.95-4.38-1.9-6.78,1.05-2.38,3.58-3.73,6.27-3.34,2.04.3,3.7,1.33,5.17,2.73,1.84,1.75,3.16,3.87,4.13,6.19,2.7,6.46,3.52,13.18,2.48,20.09-.2,1.33.17,1.92,1.25,2.57,5.03,2.99,9.84,6.31,14.09,10.37.47.45.97.65,1.63.7,4.54.36,9.03-.16,13.53-.67,13.03-1.47,22.21-8.06,27.49-20.16,5.09-11.66,7.37-23.75,5.94-36.41-2.3-20.33-13.7-33.96-31.88-42.36-4.62-2.13-9.69-2.68-14.73-3.12-2.76-.24-5.57-.27-8.19-1.36-1.4-.58-2.39-1.57-2.48-3.16-.09-1.58.77-2.66,2.06-3.46,1.4-.86,2.96-1.19,4.56-1.4,6.01-.8,11.86.19,17.59,1.83,1.91.54,3.47.32,5.11-.57,4.76-2.57,8.04-6.51,10.21-11.36,3.82-8.53,5.21-17.53,4.31-26.79-1.43-14.72-10.83-24.9-25.33-27.85-1.01-.21-1.97-.59-3.04-.57-3.88.08-7.41,1.24-10.59,3.41-2.06,1.4-4.03,2.95-6.06,4.39-4.13,2.94-9.09,1.08-9.92-3.91-.89-5.35-3.44-9.77-7.11-13.55-6.97-7.18-15.33-12.16-24.91-15.02-5.09-1.52-10.07-1.15-14.81,1.4-1.54.83-3.1,1.61-4.61,2.48-2.41,1.39-4.84,1.09-7.33.25-2.11-.71-4-1.7-5.78-3.09-7.29-5.7-15.74-9.44-23.73-13.95-1.15-.65-2.43-1.03-3.69-1.43-5.93-1.89-12.03-2.05-18.18-2.07-7.98-.02-15.67,1.52-23.12,4.17-4.56,1.62-8.98,3.67-13.01,6.44-4.35,3-8.99,5.53-13.57,8.14-1.68.96-3.43,1.56-5.49,1.47-4.04-.18-7.79-1.24-11.37-3.03-3.81-1.91-7.81-2.34-11.98-1.57-2,.37-3.94.95-5.83,1.7-8.16,3.24-15.53,7.71-21.56,14.18-3.46,3.72-5.91,7.97-6.77,13.12-.85,5.08-5.79,6.96-9.98,3.97-1.11-.79-2.18-1.65-3.27-2.47-5.39-4.11-11.11-6.49-18.11-4.44-11.44,3.35-19.41,10.19-22.63,21.91-1.73,6.3-1.47,12.7-.5,19.09.77,5.11,2.06,10.08,4.48,14.67,2.34,4.44,5.54,8.06,10.12,10.32,1.36.67,2.67.88,4.2.38,4.01-1.29,8.17-1.89,12.37-2.16,2.84-.18,5.66,0,8.4.85,2.49.77,3.88,2.34,3.83,4.16-.05,1.83-1.52,3.21-4.15,3.79-2.21.48-4.47.7-6.73.84-7.41.46-14.53,2.14-20.83,6.08-6.22,3.88-11.75,8.7-16.19,14.61-7.08,9.44-9.72,20.26-9.83,32.12Z"/><path class="cls-1" d="m105.31,85.13c0-2.48,1.9-4.54,4.6-4.63,5.51-.19,10.78-1.65,16.14-2.7,1.09-.21,1.47-.65,1.26-1.8-.5-2.73-.87-5.49-1.32-8.23-.34-2.11.08-3.96,1.84-5.32,2.65-2.05,6.44-.75,7.47,2.61.82,2.66,1.02,5.46,1.44,8.2.29,1.91.27,1.91,2.14,1.53,5.78-1.18,11.57-2.28,17.52-1.46,1.5.21,2.98.52,4.34,1.21,1.32.67,2.14,1.72,2.09,3.25-.05,1.47-.9,2.43-2.19,3.04-1.29.61-2.68.89-4.08,1.09-5.51.76-11.03,1.4-16.48,2.57-1.3.28-1.8.65-1.53,2.12.58,3.15.96,6.33,1.36,9.51.24,1.94.02,3.87-.73,5.69-.7,1.69-1.88,2.88-3.81,2.9-1.86.02-3.04-1.11-3.83-2.69-.81-1.63-1.06-3.41-1.33-5.18-.4-2.7-.86-5.4-1.16-8.11-.14-1.24-.45-1.58-1.75-1.27-4.21,1.02-8.46,1.91-12.76,2.49-1.59.21-3.19.37-4.79.09-2.63-.45-4.44-2.47-4.43-4.91Z"/><path class="cls-1" d="m71.84,364.47c0,2.03.05,4.05-.02,6.08-.04,1.06.31,1.28,1.31,1.11,4.83-.8,9.67-1.57,14.52-2.3,1.96-.3,3.94-.42,5.92-.34,2.13.08,3.42,1,3.77,2.57.36,1.65-.44,3.08-2.4,4.01-6.11,2.89-12.66,4.26-19.23,5.53-1.33.26-3.02-.05-3.91.86-.87.88-.29,2.52-.44,3.82-.17,1.5-.42,2.99-1,4.39-.86,2.06-2.33,3.17-4.11,3.12-1.81-.05-3.28-1.33-3.95-3.5-.55-1.77-.72-3.61-.6-5.45.08-1.11-.3-1.36-1.36-1.26-3.75.37-7.51.64-11.27.95-.9.07-1.79.05-2.67-.14-2.1-.46-3.61-2.15-3.78-4.23-.17-2.07,1.03-3.99,3.03-4.8,1.11-.45,2.29-.52,3.46-.62,3.9-.32,7.79-.7,11.69-1,.96-.07,1.27-.47,1.28-1.4.01-3.91.09-7.82.14-11.73,0-.71,0-1.42.05-2.12.23-2.82,2.21-4.79,4.79-4.81,2.57-.02,4.56,1.93,4.85,4.76.02.19.04.38.04.56,0,1.98,0,3.96,0,5.94h-.08Z"/><path class="cls-1" d="m411,84.34c1.84,0,3.68-.05,5.51.02,1.03.04,1.3-.36,1.23-1.32-.09-1.41-.24-2.73-.98-4.05-1.51-2.66.05-6.45,2.98-7.65,2.81-1.16,5.85.32,6.84,3.41.83,2.59.78,5.31.86,7.99.03,1.3.44,1.62,1.71,1.66,5.51.17,11.03.17,16.46,1.34.46.1.92.2,1.36.36,1.46.53,2.33,1.67,2.36,3.04.03,1.43-.82,2.68-2.36,3.17-2.21.71-4.5,1.03-6.81,1.18-3.62.24-7.25.43-10.87.55-1.03.03-1.42.32-1.4,1.38.03,1.32-.09,2.64-.16,3.95-.07,1.23-.26,2.44-.7,3.59-.56,1.46-1.51,2.52-3.18,2.64-1.59.11-2.67-.76-3.44-2.06-1.2-2.05-1.49-4.35-1.8-6.64-.39-2.8-.37-2.8-3.13-2.8-2.97,0-5.94.01-8.91-.01-.8,0-1.61-.03-2.39-.2-2.47-.52-4.06-2.46-4.02-4.78.04-2.29,1.73-4.23,4.21-4.6,1.39-.21,2.82-.13,4.23-.16.8-.02,1.6,0,2.4,0Z"/><path class="cls-1" d="m342.3,409.23c1.74,0,3.49-.09,5.23.03,1.27.09,1.48-.42,1.2-1.46-.16-.59-.32-1.18-.49-1.77-.15-.5-.35-.98-.45-1.48-.58-2.73.83-5.33,3.3-6.11,2.49-.79,5.09.51,6.17,3.15.84,2.07,1.15,4.29,1.35,6.48.12,1.35.7,1.69,1.93,1.76,3.99.24,7.99.54,11.9,1.49.87.21,1.73.46,2.56.79,1.63.64,2.46,1.83,2.4,3.3-.06,1.51-1.05,2.66-2.8,3.14-1.73.48-3.51.71-5.3.76-2.83.08-5.65.16-8.48.16-.94,0-1.25.28-1.13,1.23.17,1.4.33,2.81.21,4.23-.2,2.46-1.69,4.27-3.82,4.65-2.15.38-4.3-.91-5.25-3.19-.78-1.87-.81-3.87-.88-5.84-.04-1.15-.43-1.52-1.58-1.54-3.91-.04-7.82-.17-11.73.16-.6.05-1.23,0-1.83-.09-2.23-.38-3.81-2.01-4.05-4.12-.24-2.09.97-4.08,3.02-4.95.92-.39,1.9-.55,2.89-.61,1.88-.11,3.76-.19,5.65-.29,0,.05,0,.09,0,.14Z"/><path class="cls-1" d="m266.72,86.13c-4.53-.09-8.45.46-12.38.95-1.36.17-2.72.31-4.09.11-1.24-.18-2.3-.7-2.62-2.03-.32-1.33.39-2.27,1.42-2.99,1.66-1.15,3.58-1.74,5.54-2.01,18.54-2.52,36.17.02,52.44,9.73,3.15,1.88,6.18,3.98,9.25,6,1.08.71,1.98,1.6,2.35,2.9.43,1.49-.09,3.03-1.32,3.88-1.24.87-2.81.79-4.06-.23-13.72-11.13-29.45-16.46-46.53-16.33Z"/><path class="cls-1" d="m282.49,33.54c-.03-1.45.2-3.22.94-4.89,1.17-2.62,3.31-3.96,6.15-3.84.43.02.82,0,1.24-.17,4.14-1.69,9.43-.67,12.45,2.39,3.11,3.15,3.93,7.82,2.04,12.2-1.82,4.22-4.97,6.93-9.51,7.84-4.43.88-8.51-.93-10.97-4.72-1.55-2.4-2.33-5.21-2.34-8.81Zm13.98,1.16c0-.78-1.15-2.04-1.87-2.03-.41,0-2.25,2.03-2.24,2.46.03,1.19.85,2.32,1.65,2.29,1.07-.04,2.46-1.58,2.47-2.73Z"/><path class="cls-1" d="m457.87,378.49c.1-2.81.55-5.53,1.94-8.02.3-.53.24-.89-.04-1.41-1-1.82-.63-3.66,1.15-4.63,3.82-2.09,7.85-2.52,11.75-.34,3.45,1.93,4.83,5.18,4.67,9.05-.2,4.86-2.22,8.9-5.81,12.15-1.09.99-2.35,1.73-3.76,2.19-3.91,1.26-7.72-.56-9.18-4.4-.56-1.48-.75-3.01-.71-4.58Z"/><path class="cls-1" d="m237.46,412.85c-.22,7.8-2.26,15.23-4.53,22.62-.57,1.85-1.34,3.62-2.29,5.31-.51.91-1.09,1.77-1.93,2.41-.79.61-1.66.88-2.64.45-.96-.42-1.4-1.22-1.51-2.22-.13-1.19.14-2.34.47-3.48,1.02-3.57,2.1-7.13,3.1-10.71,2.13-7.61,3.3-15.28,1.47-23.14-.15-.63-.19-1.31-.14-1.96.15-1.93,1.46-3.26,3.19-3.35,1.7-.09,3.18,1.01,3.49,2.86.62,3.71,1.39,7.41,1.31,11.21Z"/><path class="cls-1" d="m421.25,352.74c0-2.83-.14-5.65-.64-8.44-.13-.69-.27-1.39-.52-2.05-.9-2.37.06-4.39,2.58-5.04,2.78-.71,5.59-1.26,8.38-1.92,2.12-.5,4.15-1.18,5.94-2.51,1.12-.83,2.34-.66,3.04.23.73.93.53,2.15-.58,3.12-1.63,1.42-3.59,2.25-5.65,2.78-2.77.72-5.57,1.39-8.38,1.95-1.03.21-1.12.53-.91,1.49,1.08,5.06,1.17,10.18.67,15.31-.05.56-.18,1.12-.35,1.65-.26.87-.74,1.55-1.78,1.48-.99-.06-1.36-.78-1.53-1.59-.16-.78-.24-1.58-.26-2.38-.04-1.36-.01-2.73-.01-4.09Z"/><path class="cls-1" d="m14.65,322.48c.04-2.31,2.02-4.54,4.23-4.78,2.17-.23,4.19,1.23,4.72,3.4.32,1.29.11,2.47-.96,3.32-1.04.84-2.19.75-3.28.04-.4-.26-.65-.42-1.05.03-.68.76-1.56.85-2.44.37-.92-.5-1.23-1.37-1.22-2.38Z"/><path class="cls-1" d="m494.87,151.37c1.11.05,1.86.57,2.17,1.66.33,1.16.09,2.14-.95,2.84-1.46.99-1.7,1.93-.83,3.49.46.83.49,1.63-.15,2.35-.62.69-1.42.89-2.31.58-1.41-.5-2.11-1.62-2.25-2.99-.29-2.77.63-5.18,2.54-7.2.46-.49,1.08-.75,1.78-.74Z"/><path class="cls-1" d="m32.48,97.21c2,0,4.18,1.47,4.89,3.29.53,1.36.16,2.72-.91,3.36-1.04.62-2.41.4-3.26-.75-.55-.74-.88-.86-1.71-.36-1.04.63-2.3-.2-2.62-1.53-.49-2.07,1.27-4.02,3.62-4.01Z"/><path class="cls-1" d="m176.37,29.69c.27.26.48.44.68.64.63.63.85,1.37.48,2.19-.4.88-1.19,1.19-2.09,1.16-1.73-.05-3.51-1.95-3.81-4-.27-1.9.75-3.6,2.54-4.21,1.41-.48,2.88-.02,3.46,1.09.58,1.09.23,2-1.27,3.13Z"/><path class="cls-1" d="m241.62,89.29c0,1.9-1.4,3.34-3.24,3.36-1.88.02-3.4-1.49-3.39-3.39,0-1.87,1.45-3.35,3.26-3.37,1.89-.02,3.38,1.48,3.37,3.39Z"/><path class="cls-1" d="m448.51,38.49c.12-2.01,2.07-3.63,4.1-3.4,1.63.18,2.41,1.77,1.46,3.11-.38.54-.51.96-.43,1.63.19,1.5-1.2,2.52-2.71,2.09-1.43-.4-2.52-1.95-2.43-3.43Z"/><path class="cls-1" d="m120.95,438.42c-2,.02-3.33-1.03-3.35-2.63-.02-1.69,1.81-3.33,3.71-3.33,1.63,0,2.79,1.18,2.83,2.87.05,1.93-1.12,3.06-3.19,3.08Z"/><path class="cls-1" d="m229.35,92.27c1.68.02,3.05,1.37,3.07,3.03.02,1.74-1.37,3.17-3.08,3.17-1.75,0-3.14-1.37-3.13-3.11,0-1.75,1.39-3.11,3.14-3.09Z"/><path class="cls-1" d="m232.88,392.22c.02,1.65-1.27,2.97-2.91,2.99-1.64.02-2.97-1.29-2.98-2.93-.01-1.64,1.3-2.98,2.92-3,1.63-.02,2.95,1.29,2.97,2.93Z"/><path class="cls-1" d="m408.03,456.95c1.66.03,2.78,1.09,2.72,2.58-.06,1.6-1.57,2.95-3.23,2.9-1.59-.05-3.09-1.36-3.1-2.7-.01-1.58,1.6-2.82,3.6-2.78Z"/><path class="cls-1" d="m282.4,209.73c-.27,5.41-.5,10.83-.82,16.24-.07,1.14.45,1.2,1.31,1.23,7.25.28,14.52.17,21.75.87,1.41.14,2.81.31,4.2.56,2.5.44,4.12,2.17,4.32,4.73.27,3.53.17,7.08-.43,10.57-.72,4.19-3.51,6.46-7.76,6.55-5.75.12-11.49-.58-17.24,0-1.78.18-3.57.28-5.36.34-.85.03-1.12.37-1.13,1.21-.03,7.82-.04,15.64-.15,23.46-.03,2.4-.09,4.8-.49,7.18-.42,2.52-1.98,4.38-4.52,4.5-4.51.22-9.04.55-13.55.27-3.59-.22-6.04-2.7-6.65-6.26-.3-1.78-.25-3.57-.28-5.36-.1-7.87-.21-15.74-.24-23.61,0-1.32-.45-1.64-1.69-1.71-6.31-.38-12.61-.69-18.92-.04-1.68.17-3.4.24-5.06-.2-3.01-.79-5.03-2.59-5.39-5.79-.44-3.89-.67-7.79-.6-11.71,0-.38.06-.75.12-1.12.54-3.07,2-4.5,5.1-4.65,3.24-.15,6.5-.07,9.74-.11,5.62-.06,11.2.49,16.8.82,1.08.07,1.47-.18,1.45-1.37-.17-9.9.04-19.79.2-29.69.03-1.98.18-3.96,1.38-5.68.6-.86,1.33-1.39,2.36-1.64,3.94-.94,7.96-.76,11.96-.9,2.02-.07,4.05.01,6.07.12,2.4.13,3.56,1.19,4.05,3.54.2.98.19,1.97.15,2.96-.2,4.9-.4,9.79-.6,14.69-.03,0-.06,0-.08,0Zm-17.38,51.08c.11,0,.22,0,.33,0,0,5.23.02,10.46-.01,15.69,0,.97.29,1.37,1.3,1.25,1.07-.12,2.17-.22,3.24-.17,1.11.06,1.44-.33,1.44-1.43,0-5.89.11-11.78.15-17.67.02-3.35.1-6.7-.09-10.03-.24-4.29,2.21-7.15,6.53-7.28,1.27-.04,2.55-.01,3.81-.09,6.35-.36,12.69-1,19.06-.31,2.76.29,2.76.25,2.69-2.5-.02-.74-.24-1.01-.99-.96-4.15.27-8.29-.14-12.44-.19-3.91-.05-7.82-.09-11.72-.5-1.64-.17-3.09-.84-4.47-1.66-.93-.55-1.49-1.37-1.56-2.53-.39-6.78-.23-13.56.21-20.34.24-3.76.43-7.53.61-11.29.1-2.16-.53-2.73-2.62-2.5-.66.07-1.31.12-1.97.19-1.16.12-1.74.7-1.76,1.93-.12,8.67-.24,17.34-.15,26.02.01,1.27.14,2.52-.05,3.8-.85,5.72-2.62,7.35-8.35,7.22-8.1-.18-16.18-1.01-24.29-1.05-1.79,0-2.13.25-2.31,2.33-.14,1.52.12,1.79,1.95,1.93.51.04,1.04.05,1.55,0,4.8-.54,9.6-.49,14.4-.18,3.85.24,7.72.39,11.56.83,2.71.31,3.92,1.93,3.93,4.63.01,4.95,0,9.9,0,14.85Z"/><path class="cls-1" d="m322.92,166.34c-5.17.1-8.93.06-12.69-.4-1.37-.17-2.69-.48-3.82-1.35-1.8-1.38-2.46-3.64-1.64-5.68.8-1.99,2.77-3.26,4.98-2.92,6.96,1.09,13.92.49,20.88.17,1.09-.05,1.59-.34,1.58-1.55-.05-3.2.23-6.4-.19-9.6-.37-2.83,1.41-5.17,4.02-5.59,2.6-.42,5.02,1.24,5.64,4,.58,2.55.27,5.17.34,7.75.04,1.35-.65,3.08.26,3.93.84.78,2.52.08,3.82.03,5.98-.25,11.96-.49,17.91.48,1.26.21,2.49.54,3.62,1.14,1.22.64,1.98,1.62,1.97,3.03,0,1.47-.81,2.48-2.11,3.09-1.91.9-3.99,1.07-6.06,1.27-6.01.59-12.05.58-18.08.89-1.35.07-1.75.49-1.72,1.83.1,4.47-.17,8.95.31,13.42.3,2.75-1.45,4.98-3.92,5.4-2.56.43-4.89-1.14-5.65-3.82-.38-1.33-.41-2.7-.43-4.07-.04-3.53-.08-7.07-.04-10.6.01-1.09-.32-1.37-1.38-1.3-3.01.23-6.02.35-7.64.44Z"/><path class="cls-1" d="m213.66,338.16c-2.77.13-5.54-.05-8.27.74-1.99.57-3.95-.45-4.95-2.17-1.03-1.77-.81-4.04.57-5.67,1.3-1.54,3.06-2.21,4.99-2.33,4-.25,8-.38,12-.57,2.54-.12,2.09-.09,2.09-2.24,0-2.64,0-5.27-.29-7.91-.33-2.99,1.42-5.3,4.09-5.65,2.71-.36,5.08,1.48,5.58,4.44.48,2.89.38,5.83.37,8.75,0,1.19.29,1.49,1.53,1.36,5.15-.55,10.25-1.59,15.46-1.53,1.37.02,2.73.11,4.04.56,1.57.53,2.8,1.41,2.99,3.21.18,1.78-.81,2.95-2.24,3.77-2.59,1.49-5.5,1.94-8.39,2.34-3.97.55-7.95,1.02-11.93,1.43-1.14.12-1.56.49-1.46,1.65.17,1.96.13,3.92.77,5.85.88,2.66-.48,5.34-2.94,6.25-2.48.92-5.15-.23-6.34-2.79-1.02-2.19-.99-4.58-1.16-6.93-.04-.56-.09-1.13-.05-1.69.07-.93-.29-1.25-1.23-1.17-1.74.15-3.48.21-5.22.3Z"/><path class="cls-1" d="m168.73,156.17c1.41.09,2.83.12,4.23.27,1.05.12,1.33-.29,1.24-1.26-.12-1.22-.16-2.44-.19-3.67-.01-.75,0-1.51.13-2.25.46-2.57,2.36-4.21,4.75-4.18,2.37.02,4.32,1.71,4.67,4.29.26,1.91.35,3.85.34,5.78,0,1.38.33,1.96,1.87,2.01,3.01.1,6,.52,8.98,1.02,1.4.24,2.77.6,4.03,1.25,1.27.65,2.04,1.7,2.01,3.16-.04,1.47-.89,2.45-2.2,3.02-1.8.78-3.73,1-5.66,1.07-2.49.09-4.99.14-7.49.11-.97-.01-1.31.25-1.33,1.25-.04,2.44.05,4.9-.47,7.32-.29,1.37-.88,2.59-1.92,3.55-2.17,2.01-5.28,1.5-6.7-1.1-.6-1.1-.82-2.3-.81-3.55.03-2.21.06-4.43.17-6.64.05-1.02-.27-1.41-1.33-1.45-2.78-.11-5.55-.31-8.32-.51-.61-.04-1.22-.15-1.8-.32-2.45-.73-3.93-2.86-3.65-5.2.28-2.35,2.2-4.09,4.78-4.17,1.55-.05,3.1.12,4.66.19,0,0,0,.02,0,.02Z"/><path class="cls-1" d="m93.61,269.94c.03-2.45.5-7.27,1.74-12,.29-1.1.63-2.18,1.32-3.1,1.11-1.48,2.85-1.96,4.38-1.21,1.52.74,2.2,2.42,1.63,4.22-3.13,9.86-2.82,19.67.29,29.47.64,2.02,1.26,4.05,1.83,6.09.25.9.41,1.84.52,2.77.14,1.26-.17,2.39-1.45,2.94-1.29.56-2.29-.09-3.12-1.01-1.74-1.93-2.77-4.26-3.64-6.66-2.24-6.16-3.53-12.5-3.49-21.5Z"/><path class="cls-1" d="m429.73,182.89c-.03,2.46-.27,4.89-1.37,7.15-.6,1.23-1.45,2.15-2.96,1.9-1.45-.24-2-1.36-2.14-2.64-.32-2.99-.2-6.02-.66-9.01-.45-2.95-1.19-5.81-2.54-8.48-1.54-3.07-3.87-5.29-7.16-6.44-.27-.09-.53-.19-.79-.31-1.75-.83-2.61-2.4-2.18-3.97.45-1.66,2.19-2.75,4.11-2.43,2.93.48,5.36,2.02,7.53,3.94,4.41,3.91,6.34,9.12,7.5,14.7.38,1.84.65,3.71.64,5.6Z"/><path class="cls-1" d="m120.24,212.05c-.77-.02-1.44-.2-1.68-.78-.39-.94-1.18-1.24-1.96-1.67-2.89-1.59-4.65-4.21-6.14-7.01-.61-1.15-.1-2.38.96-2.88,1.04-.49,2.18-.11,2.84,1.11,1.34,2.44,3.12,4.44,5.44,6,.67.45,1.19.53,1.93.3,2.67-.83,5.41-1.19,8.21-1.14.86.02,1.7.13,2.48.47.81.35,1.51.89,1.39,1.9-.11.98-.83,1.44-1.73,1.6-.65.12-1.31.21-1.96.22-3.13.05-6.2.35-9.07,1.72-.25.12-.55.12-.71.16Z"/><path class="cls-1" d="m289.56,207.15c-.14,2.91-.39,5.82-.19,8.75.12,1.73-.73,2.82-2.04,2.87-1.27.05-2.04-.83-2.17-2.59-.36-4.67.3-9.31.36-13.97.02-1.51.09-3.01.15-4.52.05-1.48.81-2.39,2.02-2.42,1.24-.03,2.19.94,2.21,2.43.04,3.15.01,6.31.01,9.46h-.35Z"/><path class="cls-1" d="m295.31,223.31c.04,1.16-.84,2.05-2.03,2.06-1.1,0-1.95-.85-1.96-1.96,0-1.11.85-1.99,1.94-1.99,1.13,0,2.01.81,2.05,1.9Z"/><path class="cls-1" d="m289.2,223.55c.01,1.13-.81,2-1.91,2.02-1.09.02-1.97-.82-2.02-1.93-.05-1.17.84-2.11,1.99-2.1,1.08.01,1.92.88,1.94,2.01Z"/><path class="cls-1" d="m299.72,226.09c-.88-.13-1.49-.7-1.54-1.74-.05-.98.83-1.79,1.82-1.73,1.06.07,1.64.67,1.67,1.72.03,1-.82,1.79-1.96,1.75Z"/><path class="cls-1" d="m42.17,188.12c.72,1.75,1.41,3.31,1.99,4.91.65,1.79,1.01,3.63.67,5.55-.52,2.87-2.78,4.53-5.68,4.15-1.17-.15-2.26-.55-3.24-1.18-3.09-2-4.96-4.86-5.53-8.47-.77-4.93,2.43-8.64,7.7-9.01,5.16-.36,9.94.97,14.42,3.49.37.21.73.46,1.05.74,1.24,1.06,1.45,2.54.5,3.47-.89.88-3.01.85-3.68-.32-.82-1.42-2.14-1.76-3.43-2.23-1.48-.54-3-1-4.79-1.12Zm-8.02,4.03c.16,2.15,1.29,4.2,3.27,5.76.87.68,1.97,1.47,3.04.82,1.08-.66.77-1.99.58-3.07-.42-2.46-1.47-4.74-2.2-7.11-.13-.43-.34-.62-.82-.61-2.17.04-3.89,1.71-3.88,4.21Z"/><path class="cls-1" d="m120.27,456.89c-1.53-.05-2.88-.74-3.63-2.3-.77-1.6-.52-3.13.6-4.51.18-.22.38-.45.61-.61,5.85-4.07,10.57-9.44,16-13.98,2.02-1.69,4.02-3.41,6.27-4.81.63-.39,1.28-.74,2.05-.8,1.97-.15,3.39,1.52,2.94,3.44-.17.74-.57,1.36-.98,1.99-2.61,4-5.96,7.36-9.32,10.7-3.19,3.16-6.46,6.25-10.02,8.99-1.28.99-2.63,1.86-4.51,1.89Z"/><path class="cls-1" d="m116.01,447.82c-2.15-.02-3.9-1.62-4.1-3.84-.12-1.36,0-2.72.34-4.04.39-1.53,1.34-2.64,2.91-3.07.75-.21,1.31-.62,1.86-1.14,3.97-3.72,8.13-7.2,12.92-9.85,1.37-.76,2.78-1.43,4.32-1.77,1.3-.29,2.49-.08,3.31,1.07.81,1.14.66,2.34-.04,3.48-.82,1.35-1.9,2.49-3.1,3.49-2.9,2.43-5.84,4.82-8.74,7.25-2.24,1.88-4.38,3.85-5.96,6.37-.91,1.45-2.22,2.07-3.72,2.06Z"/></svg>