<?xml version="1.0" encoding="UTF-8"?><svg id="Layer_1" xmlns="http://www.w3.org/2000/svg" viewBox="0 0 512 512"><defs><style>.cls-1{stroke-width:0px;}</style></defs><path class="cls-1" d="m150.93,450.6c0,1.3-.39,2.3-1.48,2.9-1.08.59-2.16.42-3.16-.23-1.22-.8-2.19-1.87-3.05-3.03-4.14-5.57-6.61-11.94-8.81-18.43-.14-.42-.18-.89-.2-1.34-.08-2.09,1.11-3.81,2.98-4.33,1.88-.52,3.84.29,4.8,2.13.55,1.05.92,2.2,1.32,3.33,1.74,4.86,4.17,9.41,6.2,14.15.68,1.6,1.3,3.21,1.4,4.87Z"/><path class="cls-1" d="m123.63,434.35c0-2.45,1.21-4.28,3.22-4.88,2.02-.6,4.03.26,5.35,2.33.31.48.6.99.84,1.51,1.96,4.17,3.91,8.34,5.84,12.53.62,1.35,1.17,2.73,1.19,4.25.03,2.76-2.2,4.2-4.7,3.03-1.3-.61-2.25-1.64-3.13-2.74-2.28-2.82-3.57-6.19-5.07-9.43-.47-1.02-.98-1.92-1.93-2.63-1.28-.95-1.63-2.42-1.6-3.97Z"/><path class="cls-1" d="m275.27,401.54c.12-7.27.83-14.49,1.96-21.67.17-1.1-.13-1.59-1.15-1.97-3.02-1.14-5.72-2.84-8.3-4.78-2.67-2.01-3.63-1.67-5.67-.11-4.15,3.17-8.77,5.31-13.87,6.43-.82.18-1.25.36-.95,1.37,3.37,11.27,3.39,22.68,1.18,34.14-1.61,8.37-3.18,16.77-6.27,24.77-.77,1.99-1.65,3.91-2.97,5.59-1.26,1.59-2.82,2.56-4.91,2.04-2.09-.52-3.01-2.1-3.35-4.11-.39-2.41-.11-4.79.25-7.17,1.1-7.23,3.14-14.26,4.55-21.43,1.84-9.35,2.37-18.68.12-28.05-.47-1.95-1.5-3.65-2.1-5.54-.23-.72-.91-.54-1.45-.59-5.05-.4-9.99-1.36-14.72-3.2-8.76-3.41-15.37-9.39-20.35-17.24-.7-1.1-1.06-1.24-2.16-.41-11.89,8.97-24.93,15.56-39.67,18.36-7.11,1.35-14.08.65-20.77-2.29-12.21-5.38-18.94-16.31-18.25-29.63.25-4.75,1.24-9.34,2.9-13.78.46-1.23.15-1.48-1.06-1.6-9.73-.98-18.7-3.91-26.25-10.4-4.5-3.87-7.96-8.55-10.6-13.82-8.41-16.77-11.2-34.39-7.57-52.87,2.92-14.87,10.68-26.81,22.45-36.23,1.14-.91,2.28-1.82,3.44-2.71.51-.39.69-.69.11-1.21-6.62-5.92-9.86-13.69-11.86-22.06-2.48-10.36-3.13-20.78-.25-31.19,4.49-16.21,18.9-28.67,35.43-30.72,6.95-.86,13.29.83,19.07,4.68,1.04.7,1.5.67,2.06-.54,2.13-4.52,5.07-8.51,8.72-11.91,9.59-8.95,20.51-15.56,33.57-17.92,7.23-1.31,14.24-.22,20.44,3.98,1.68,1.14,2.81,1.4,4.68.45,2.63-1.33,5.15-2.73,7.45-4.56,4.36-3.48,9-6.52,13.97-9.07,6.84-3.5,14.19-4.88,21.74-5.7,8.33-.9,16.63-1.13,24.95-.01,5.41.73,10.65,2.13,15.43,4.81,6.25,3.5,12.76,6.53,18.72,10.54,2.15,1.45,4.29,2.91,6.43,4.36.51.34.94.66,1.63.16,6.7-4.89,14.32-6.24,22.19-4.53,15.49,3.37,28.29,11.35,38.13,23.89,1.37,1.74,2.51,3.66,3.4,5.69.52,1.2.98,1.41,2.14.63,6.17-4.15,12.96-5.68,20.33-4.51,4.42.71,8.59,2.17,12.52,4.27,14.24,7.63,21.92,19.62,23.24,35.62.85,10.34-.68,20.41-4.47,30.09-2.03,5.19-4.85,9.91-9.08,13.64-.69.61-.66.95.06,1.49,2.91,2.18,5.68,4.51,8.31,7.02,11.59,11.08,17.5,24.83,18.73,40.65,1.21,15.54-1.79,30.3-8.91,44.19-7.16,13.97-18.75,21.61-34.15,23.77-.98.14-1.96.28-2.95.33-1.01.05-1.17.41-.83,1.33,1.55,4.17,2.57,8.47,2.9,12.92,1.66,22.44-15.82,32.71-29.68,33.55-6.61.4-12.94-.92-19.15-3.03-10.93-3.72-21.04-8.99-30.14-16.14-.97-.76-1.21-.22-1.65.48-5.9,9.33-13.93,15.87-24.68,18.84-5.49,1.51-11.1,2.17-16.78,1.92-1.42-.06-1.83.37-2.02,1.72-1.49,10.72-2.37,21.46-.95,32.26.96,7.29,3.4,14.19,5.54,21.17.6,1.94,1.24,3.86,1.37,5.9.21,3.34-1.67,5.26-4.99,5.11-.28-.01-.56,0-.84.06-2.63.54-3.66.1-4.89-2.33-3.98-7.83-6.46-16.17-8.1-24.77-1.17-6.09-1.48-12.25-1.38-18.44Zm-190.42-132.53c.19,11.71,2.85,23.07,8.79,33.56,3.73,6.58,9.08,11.3,16.34,13.58,7.31,2.29,14.83,3.08,22.48,2.64.5-.03.9-.22,1.25-.56,4.45-4.26,9.51-7.7,14.79-10.85.73-.44.91-.94.75-1.75-.51-2.6-.6-5.24-.44-7.89.34-5.42,1.45-10.65,4.25-15.39,1.52-2.57,3.46-4.72,6.34-5.8,3.08-1.15,6.21-.1,7.61,2.5,1.44,2.67.6,5.65-2.2,7.63-.78.55-1.53,1.12-1.94,2.01-2.8,6.13-3.5,12.41-1.01,18.79,1.64,4.19,4.9,6.18,9.4,6.12,2.79-.04,5.54-.45,8.28-.96,1.44-.26,2.89-.47,4.35-.37,1.86.12,3.43.76,4.16,2.63.71,1.8.05,3.32-1.17,4.66-1.15,1.27-2.56,2.21-4.07,3.01-8.14,4.26-20.82,4.07-27.91-4.37-.45-.54-.85-.54-1.46-.23-7.5,3.72-13.91,8.77-19,15.45-2.56,3.36-4.86,6.81-5.33,11.19-.81,7.71,1.25,14.1,8.22,18.29,3.34,2.01,6.98,3.02,10.89,3.07,4.84.06,9.43-1.14,13.93-2.76,7.2-2.58,14.14-5.75,20.97-9.17,3.54-1.77,7.1-3.5,10.8-4.92,1.15-.44,2.34-.72,3.55-.91,1.61-.25,2.96.1,3.98,1.48,1.92,2.61,3.84,5.23,5.82,7.79,4.98,6.42,11.34,10.67,19.37,12.32,5.12,1.05,10.27,1.29,15.47.75,5.33-.55,10.19-2.26,14.42-5.61,1.36-1.08,2.63-2.3,4.05-3.3,3.24-2.3,4.82-2.52,7.89-.3,1.53,1.1,3.01,2.25,4.47,3.45,2.96,2.43,6.27,4.17,9.97,5.13,4.71,1.23,9.5,1.42,14.32,1.06,9.55-.71,17.88-4.05,24.15-11.58,1.92-2.31,3.29-5.02,4.87-7.57,1.78-2.87,3.7-3.74,6.99-3.21,1.03.17,2.01.49,2.98.85,4.96,1.85,9.58,4.42,14.36,6.66,7.43,3.47,14.84,7,22.83,9.05,4.34,1.11,8.72,1.54,13.15.51,9.73-2.26,15-9.4,14.5-19.36-.25-4.93-2.57-8.85-5.45-12.6-5.11-6.67-11.51-11.72-19-15.46-.7-.35-1.08-.22-1.56.33-7.67,8.94-21.41,8.48-29.4,3.35-1.32-.85-2.52-1.84-3.33-3.21-1.42-2.41-.27-5.2,2.43-5.94,1.3-.35,2.62-.31,3.93-.13,2.89.41,5.76,1,8.68,1.19,6.34.41,10.12-2.3,11.66-8.47,1.1-4.42.71-8.8-.51-13.13-.65-2.31-1.68-4.3-3.81-5.73-2.26-1.51-2.9-4.28-1.9-6.66,1.01-2.4,3.52-3.8,6.21-3.44,2.05.27,3.72,1.29,5.2,2.67,1.89,1.77,3.23,3.93,4.22,6.3,2.71,6.51,3.51,13.27,2.44,20.23-.18,1.14.11,1.69,1.06,2.26,5.11,3.04,10,6.4,14.32,10.53.47.45.99.62,1.64.67,4.45.36,8.84-.15,13.25-.63,13.07-1.43,22.35-7.94,27.68-20.1,5.12-11.69,7.42-23.83,5.98-36.54-2.3-20.33-13.75-33.93-31.9-42.33-4.62-2.13-9.69-2.67-14.73-3.1-2.76-.24-5.57-.27-8.19-1.37-1.39-.59-2.37-1.59-2.44-3.18-.07-1.51.74-2.58,1.97-3.36,1.39-.88,2.95-1.23,4.54-1.44,6.05-.83,11.95.18,17.73,1.82,1.85.52,3.38.33,4.98-.53,4.82-2.58,8.12-6.55,10.31-11.44,3.77-8.44,5.16-17.35,4.32-26.51-1.36-14.86-10.7-25.04-25.39-28.09-1.01-.21-1.98-.59-3.04-.56-3.87.09-7.4,1.25-10.58,3.43-2.06,1.41-4.03,2.95-6.06,4.39-4.12,2.92-9.07,1.03-9.89-3.97-.86-5.2-3.3-9.52-6.84-13.22-7.05-7.38-15.56-12.46-25.34-15.35-4.99-1.47-9.89-1.08-14.54,1.4-1.29.69-2.64,1.28-3.85,2.09-4.18,2.83-9.15.81-12.51-1.35-2.09-1.34-4.03-2.93-6.1-4.33-5.87-3.98-12.37-6.84-18.49-10.36-3.05-1.75-6.48-2.6-9.95-3.07-9.18-1.24-18.28-.99-27.39,1.01-7.05,1.55-13.62,4.21-19.71,7.92-5.07,3.08-10.09,6.25-15.26,9.16-1.35.76-2.76,1.44-4.38,1.41-4.01-.06-7.89-.79-11.45-2.67-5.45-2.88-11.01-2.88-16.71-.97-5.91,1.98-11.33,4.89-16.34,8.57-6.96,5.11-12.59,11.1-14.14,20.14-.76,4.42-5.74,6.04-9.46,3.47-1.24-.86-2.41-1.81-3.61-2.72-5.39-4.11-11.13-6.46-18.11-4.4-11.49,3.39-19.46,10.27-22.63,22.07-1.68,6.26-1.41,12.61-.45,18.95.77,5.11,2.06,10.07,4.49,14.67,2.37,4.48,5.61,8.14,10.27,10.35,1.01.48,2.05.93,3.25.53,3.05-1.01,6.2-1.6,9.38-2.02,4.14-.54,8.28-.73,12.33.56,2.41.77,3.73,2.35,3.66,4.14-.08,1.79-1.51,3.15-4.05,3.72-2.26.51-4.56.72-6.87.86-7.36.45-14.44,2.13-20.7,6.02-6.31,3.92-11.9,8.8-16.38,14.81-7.01,9.42-9.61,20.2-9.72,32.03Z"/><path class="cls-1" d="m476.68,264.93c.05-2.59.54-5.69,1.89-8.6.65-1.4,1.58-2.5,3.25-2.55,1.6-.04,2.64.84,3.2,2.3.19.51.43.57.96.39,7.79-2.7,14.53,1.05,16.1,9.09,1.08,5.54-.19,10.61-3.93,14.89-4.16,4.77-10.16,5.03-14.88.78-4.03-3.63-6.64-9.83-6.59-16.29Zm15.98,4.18c.01-1.15-.13-2.26-.86-3.2-.38-.49-.76-.73-1.13.04-.62,1.3-1.62,2.18-3.03,2.54-.59.15-.75.43-.55,1.02.55,1.57,1.31,3.01,2.47,4.22.61.64,1.11.55,1.61-.13.97-1.34,1.4-2.85,1.48-4.48Z"/><path class="cls-1" d="m72.01,336.61c-.03,3.18-2.43,5.41-5.26,4.95-2.81-.47-5.63-.47-8.45-.51-10.13-.12-20.25-.08-30.37.36-1.33.06-2.6.24-3.86.73-1.7.66-3.48.84-5.26.28-2.19-.68-3.64-2.51-3.73-4.65-.09-2.14,1.22-4.05,3.36-4.91,1.33-.53,2.73-.73,4.14-.83,14.2-1,28.42-.99,42.64-.55,1.23.04,2.44.23,3.57.75,2.02.93,3.14,2.48,3.2,4.38Z"/><path class="cls-1" d="m318.47,97.13c-.08,1.4-.65,2.44-1.86,3.03-1.27.61-2.48.39-3.59-.42-5.85-4.3-12.33-7.44-19.02-10.17-13.78-5.63-28.02-7.17-42.7-4.69-1.12.19-2.18.59-3.25.94-1.84.61-3.41.12-4.21-1.28-.81-1.41-.36-3.39,1.09-4.57,1.48-1.21,3.3-1.57,5.11-1.88,17.48-2.99,34.24-.62,50.36,6.68,5.29,2.39,10.41,5.09,15.26,8.29,1.5.99,2.75,2.17,2.81,4.07Z"/><path class="cls-1" d="m343.52,43.58c-.07.84-.08,1.7-.22,2.53-1.36,8.31-9.21,11.8-16.28,7.21-3.5-2.28-5.78-5.48-6.82-9.53-.22-.85-.52-1.48-1.33-2-1.77-1.13-2.3-2.9-1.98-4.93.25-1.54,1.05-2.8,2.08-3.94,1.45-1.61,3.37-2.71,4.81-4.34.51-.58,1.34-.83,2.08-.68,1.41.28,2.82.03,4.22.12,4.86.31,8.38,2.83,10.91,6.84,1.67,2.65,2.49,5.57,2.52,8.71Zm-9.79.08c-.01-1.1-.25-2.1-.71-3.04-.6-1.21-1.38-2.24-2.73-2.69-.82-.27-1.42-.18-1.27.92.29,2.14.91,4.13,2.55,5.65.46.43.97,1.11,1.67.77.6-.29.44-1.07.5-1.61Z"/><path class="cls-1" d="m68.33,185.53c-.05,2.96-1.6,6.59-4.78,9.45-5.67,5.09-14.02,3.37-17.26-3.53-1.73-3.69-1.67-7.48-.58-11.3.26-.92.34-1.8.22-2.76-.34-2.78.94-4.83,3.25-6.25,2.32-1.43,4.88-1.6,7.5-1.09,6.79,1.32,11.68,7.27,11.65,15.49Zm-13.91-2.64c-.03,1.38.07,2.74.59,4.03.54,1.34,1.35,1.47,2.34.44,2.16-2.24,1.38-6.04-1.49-7.37-.92-.43-1.28-.23-1.28.79,0,.7-.11,1.41-.16,2.11Z"/><path class="cls-1" d="m454.28,376.75c-2.86.03-4.59-.89-5.11-2.59-.55-1.78.36-3.65,2.53-5.05,3.02-1.94,6.45-2.54,9.95-2.89,6.29-.62,12.61-.55,18.92-.82,3.1-.13,6.2-.19,9.26-.94,2.23-.55,4.35.59,5.28,2.58.92,1.97.41,4.31-1.26,5.79-1.18,1.04-2.62,1.45-4.13,1.67-4.58.67-9.21.71-13.82.78-6.84.11-13.65.61-20.44,1.37-.47.05-.94.08-1.16.09Z"/><path class="cls-1" d="m88.82,82.13c-2.87.14-4.98-1.42-5.37-3.9-.39-2.53,1.19-4.82,3.96-5.52,2.9-.74,5.89-.67,8.85-.8,7.77-.34,15.53-.67,23.27-1.38,1.27-.12,2.54-.19,3.81.02,2.71.46,4.54,2.54,4.45,5.02-.09,2.48-2,4.36-4.7,4.56-11.41.88-22.85,1.32-34.27,2Z"/><path class="cls-1" d="m412.43,78.44c-4.24.28-8.47.41-12.7.71-1.69.12-3.4.05-5.04-.44-1.7-.52-2.94-1.55-3.18-3.4-.23-1.78.67-3.09,2.09-4.04,2.28-1.52,4.91-1.81,7.56-1.98,7.47-.46,14.96-.31,22.44-.58,1.5-.05,3-.28,4.5-.27,2.38,0,4.32,1.47,4.9,3.55.77,2.76-.98,5.52-3.93,6.13-1.39.29-2.81.3-4.22.31-4.14.02-8.28,0-12.42,0Z"/><path class="cls-1" d="m264.39,409.8c0-1.32.03-2.64,0-3.96-.06-2.4,1.24-4.03,3.3-4.11,2.01-.07,3.57,1.51,3.63,3.86.09,3.2.14,6.4.48,9.6.57,5.34,2.21,10.4,4.15,15.37,1.48,3.77,3.02,7.52,4.24,11.39.25.81.5,1.62.45,2.49-.09,1.57-.98,2.78-2.37,3.17-1.3.38-2.73-.13-3.61-1.33-.3-.41-.58-.88-.73-1.36-1.91-5.97-4.53-11.68-6.51-17.62-1.89-5.68-2.77-11.53-3.03-17.5Z"/><path class="cls-1" d="m452.99,195.03c-.55,2.78-1.46,5.74-2.75,8.58-.93,2.06-1.94,4.09-3.39,5.84-.45.54-.35.83.12,1.27,3.4,3.17,5.99,7,8.61,10.8.7,1.02,1.25,2.11,1.43,3.35.17,1.2-.16,2.26-1.18,2.99-.98.69-2.04.64-3.09.14-1.23-.59-2.09-1.58-2.87-2.66-1.53-2.09-3.02-4.21-4.59-6.27-1.34-1.76-2.87-3.34-4.71-4.64-2.03-1.43-2.04-3.06-.99-5.26,2.12-4.44,5.06-8.51,6.15-13.42.23-1.05.52-2.11,1.18-3,.91-1.24,2.36-1.76,3.73-1.33,1.45.46,2.37,1.76,2.35,3.61Z"/><path class="cls-1" d="m470.42,413.4c1.58.01,2.58.37,3.13,1.45.53,1.03.24,2.01-.37,2.92-.51.75-1.18,1.33-1.91,1.86-1.22.88-2.44,1.76-3.68,2.61-1.54,1.05-3.36.94-4.51-.25-1.19-1.23-1.31-3.2-.09-4.63,2.04-2.41,4.79-3.52,7.43-3.95Z"/><path class="cls-1" d="m497.8,163.12c-1.42-.07-2.82-.19-4.1-.88-1.02-.55-1.67-1.37-1.68-2.58,0-1.22.65-2.08,1.69-2.57,2.03-.95,4.17-1.13,6.33-.53,1.4.39,2.27,1.67,2.3,3.06.03,1.42-.79,2.6-2.18,3.15-.76.3-1.56.32-2.36.35Z"/><path class="cls-1" d="m31.03,56.65c-2.17-.03-4.65-2.47-4.63-4.55.02-1.87,1.57-3.39,3.45-3.38,2.16.02,4.49,2.59,4.41,4.88-.06,1.76-1.45,3.08-3.22,3.05Z"/><path class="cls-1" d="m231.44,84.35c2.06.02,3.93,1.94,3.94,4.06.01,1.94-1.46,3.47-3.34,3.48-2,0-3.94-2.09-3.94-4.24,0-1.85,1.48-3.31,3.34-3.29Z"/><path class="cls-1" d="m171.7,18.34c-.05,2.22-1.44,3.76-3.38,3.75-1.98-.02-3.68-1.76-3.65-3.75.03-2.04,1.97-3.94,3.93-3.85,1.86.09,3.14,1.68,3.1,3.85Z"/><path class="cls-1" d="m469.28,30.55c2.22,0,3.96,1.64,3.95,3.75,0,1.86-1.37,3.23-3.2,3.23-2.14,0-4.24-1.83-4.27-3.73-.04-1.84,1.48-3.24,3.52-3.25Z"/><path class="cls-1" d="m272.18,393.2c-.02,1.99-1.43,3.46-3.31,3.47-1.93,0-3.52-1.66-3.5-3.67.02-1.95,1.62-3.54,3.51-3.48,1.87.06,3.33,1.68,3.3,3.68Z"/><path class="cls-1" d="m80.29,394.1c1.91,0,3.37,1.57,3.35,3.59-.02,2.04-1.5,3.58-3.4,3.54-1.85-.04-3.25-1.55-3.28-3.52-.02-2.03,1.43-3.6,3.33-3.6Z"/><path class="cls-1" d="m224.72,93.98c-.02,1.85-1.49,3.3-3.34,3.3-1.81,0-3.31-1.54-3.26-3.36.05-1.82,1.56-3.32,3.36-3.32,1.81,0,3.27,1.53,3.25,3.38Z"/><path class="cls-1" d="m271.67,383.67c0,1.76-1.39,3.14-3.14,3.13-1.72,0-3.13-1.42-3.14-3.17-.01-1.72,1.41-3.13,3.16-3.13,1.72,0,3.13,1.43,3.13,3.17Z"/><path class="cls-1" d="m296.89,248.44c-5.71.61-11.79.6-17.86.62-6.82.02-13.64-.54-20.47-.62-8.61-.1-17.23-.47-25.84.2-2.56.2-5.21.44-7.65-.71-2.24-1.06-4.02-2.64-4.28-5.24-.48-4.67-1.24-9.33-1.06-14.05.06-1.75.82-3.27,1.61-4.75.62-1.16,1.89-1.66,3.11-1.93,1.9-.41,3.84-.25,5.77-.28,9.32-.19,18.62.62,27.95.19,3.02-.14,6.06.18,9.1.55,3.42.42,6.94-.06,10.38.23,3.37.29,6.61-.82,9.95-.55,9.66.79,19.39.2,29.03,1.51,3.09.42,5.3,2.83,5.35,5.83.07,4.29.21,8.59-.71,12.8-.75,3.45-3.69,6.41-7.77,6.43-3.91.02-7.82-.14-11.72-.24-1.51-.04-3.01,0-4.87,0Zm-2.34-11.01c4.85-.24,9.71-.34,14.53.32,1.42.19,1.73-.41,1.94-1.44.09-.46.03-.94.08-1.41.09-.8-.25-1.12-1.04-1.08-3.01.18-5.99-.12-8.99-.28-8.08-.44-16.19-.38-24.29-.31-8.81.08-17.6-.08-26.4-.61-2.77-.16-6.23-.27-8.31-.22-3.57.22-6.76.3-10.14.26-2.17-.02-3.04.7-3.15,2.92-.06,1.12.24,1.77,1.52,1.83.99.04,1.97.12,2.96.04,4.42-.37,8.84-.58,13.27-.25,7.98.59,15.98.36,23.96,1.07,3.57.32,7.19.02,10.81-.21,4.4-.28,8.83-.47,13.26-.64Z"/><path class="cls-1" d="m313.09,149.54c6.55,0,13.1,0,19.65,0,1.47,0,2.92.16,4.27.82,2.21,1.09,3.31,3.34,2.75,5.62-.53,2.15-2.46,3.67-4.87,3.49-7.02-.53-14.03.01-21.05,0-6.03-.02-12.06.07-18.09.1-.99,0-1.97.05-2.95.21-2.85.47-5.19-1.06-5.77-3.71-.56-2.55,1.01-5.11,3.63-5.92,1.01-.31,2.05-.31,3.08-.31,6.46,0,12.91,0,19.37,0,0-.1,0-.2,0-.29Z"/><path class="cls-1" d="m164.6,174.09c6.27,0,12.53,0,18.8,0,1.08,0,2.17.02,3.22.37,2,.66,3.29,2.41,3.3,4.46.01,2.06-1.24,3.81-3.24,4.5-.99.34-2.03.42-3.07.41-11.17-.08-22.33.18-33.5.44-1.74.04-3.47.14-5.2.44-3,.53-5.49-1.09-6.04-3.76-.56-2.72,1.16-5.23,4.13-5.94,1.61-.38,3.28-.4,4.92-.41,5.56-.04,11.12-.02,16.67-.02,0-.16,0-.32,0-.48Z"/><path class="cls-1" d="m258.67,258.02c-8.76.43-17.52.66-26.28.68-3.12,0-4.67-1.02-4.7-3.21-.04-2.26,1.73-3.68,4.73-3.69,15.64-.06,31.27-.74,46.92-.65,2.54.02,5.09.02,7.63-.18,2.17-.17,3.77,1.07,3.98,2.95.21,1.87-1.05,3.39-3.17,3.84-1.21.25-2.43.27-3.66.27-8.48,0-16.96,0-25.44,0Z"/><path class="cls-1" d="m115.84,224.87c1.85-.01,3.33,1.09,3.64,2.72.33,1.73-.6,3.4-2.5,3.87-2.37.59-4.12,1.99-5.73,3.68-7.59,7.98-12.14,17.39-13.41,28.36-.21,1.79-.2,3.57-.02,5.36.15,1.46.26,2.92-.18,4.35-.34,1.11-1.03,1.92-2.22,2.13-1.12.2-2.04-.27-2.74-1.12-1.36-1.65-1.68-3.65-1.81-5.69-.42-6.38,1.04-12.45,3.06-18.42,2.78-8.21,7.66-15.08,13.77-21.12,2.63-2.6,5.81-4.1,8.16-4.11Z"/><path class="cls-1" d="m398.15,260.01c-3.2,0-6.4,0-9.6,0-1.37,0-2.73-.11-4.01-.66-2.97-1.3-3.58-4.71-1.21-6.93,1.75-1.64,3.95-2.09,6.26-2.15,5.64-.15,11.29-.17,16.93-.53,1.55-.1,3.09-.25,4.64-.39,3.16-.27,5.46,1.29,5.88,3.98.42,2.73-1.36,5.02-4.53,5.6-3.06.56-6.18.59-9.28.74-1.69.08-3.39.01-5.08.01,0,.11,0,.22,0,.33Z"/><path class="cls-1" d="m233.7,323.89c-4.76-.13-9.5-.47-14.22-1.13-1.56-.22-3.03-.7-4.3-1.67-2.84-2.18-2.36-5.98.95-7.37,1.61-.68,3.3-.73,5.01-.54,6.09.68,12.19,1.21,18.33.84,1.74-.1,3.39.29,4.66,1.62,1.48,1.55,1.82,3.37,1.06,5.36-.71,1.86-2.5,3.08-4.56,2.94-2.31-.15-4.62.03-6.92-.05Z"/><path class="cls-1" d="m393.82,346c0,6.46-3.91,11.76-9.78,14.06-2.36.92-4.78,1.43-7.32.86-.41-.09-.83-.19-1.22-.34-1.7-.64-2.56-1.71-2.48-3.05.08-1.32,1.05-2.23,2.9-2.63,1.38-.3,2.77-.52,4.15-.82,1.25-.27,2.4-.81,3.46-1.55,3.82-2.67,4.45-6.68,1.63-10.4-1.76-2.31-1.14-5.01,1.34-5.69,1.77-.49,3.14.29,4.22,1.6,2.08,2.53,3.04,5.48,3.1,7.95Z"/><path class="cls-1" d="m303.81,254.09c.01,1.91-1.47,3.49-3.32,3.54-1.83.05-3.28-1.4-3.32-3.31-.04-2.03,1.45-3.64,3.35-3.62,1.81.02,3.27,1.53,3.28,3.39Z"/></svg>