<?xml version="1.0" encoding="UTF-8"?><svg id="Layer_1" xmlns="http://www.w3.org/2000/svg" viewBox="0 0 512 512"><defs><style>.cls-1{stroke-width:0px;}</style></defs><path class="cls-1" d="m355.02,46.03c-2.65-2.99-3.82-6.98-6.79-9.77-1.09-1.02-2.01-2.24-2.79-3.52-1.33-2.19-1.59-4.45-.13-6.67,1.41-2.13,3.48-2.78,5.95-2.41.59.09,1.2.1,1.79.1,1.05,0,2.12.1,2.96.72,2.54,1.87,5.35,3.42,7.3,6.02,4.76,6.37,9,13.08,12.34,20.3,1.23,2.67,2.48,5.36,3.37,8.18.38,1.22.03,2.26-1.11,2.89-4.76,2.62-9.51,5.24-14.27,7.87-1.17.64-2.38,1.17-3.63,1.65-5.39,2.09-10.79,4.15-16.59,4.85-1.4.17-2.82.38-4.22.36-4.97-.06-7.56-4.45-5.4-8.92,1.24-2.57,3.14-4.2,5.88-4.98,3.84-1.09,7.65-2.27,11.47-3.42.46-.14.99-.2,1.51-.77-2.74-.79-5.3-1.58-7.89-2.26-7.46-1.97-14.96-3.83-22.56-5.14-7.5-1.3-15-2.68-22.56-3.59-5.44-.66-10.85-1.55-16.31-1.95-3.11-.23-6.25-.86-9.31-.63-1.96.15-3.92-.05-5.89.14-2.27.22-4.61-.26-6.91-.45-.68-.06-1.38-.11-2.03-.3-1.05-.31-1.43-.06-1.47,1.1-.14,4.51-.55,8.99-1.44,13.42-.57,2.82-1.31,5.6-2.52,8.23-.8,1.72-1.76,3.34-3.13,4.68-3.06,2.97-7.3,3.19-10.63.52-2.44-1.96-3.77-4.63-4.62-7.57-1.11-3.83-1.27-7.78-1.48-11.72-.14-2.66-.19-5.32-.21-7.98,0-.93-.28-1.27-1.26-1.26-6.27.12-12.48.89-18.65,1.81-2.86.42-5.74.91-8.56,1.62-4.85,1.22-9.77,2.3-14.48,3.97-3.36,1.19-6.85,2.13-10.08,3.65-3.88,1.82-7.99,3.13-11.74,5.16-3.72,2.01-7.68,3.59-11.22,5.86-3.56,2.28-7.37,4.1-10.86,6.48-3.64,2.47-7.36,4.83-10.96,7.35-3.74,2.62-7.54,5.2-11.03,8.14-3.39,2.86-7.05,5.4-10.29,8.44-2.02,1.9-4.09,3.75-6.16,5.58-3.42,3.02-6.47,6.42-9.72,9.62-2.28,2.24-4.28,4.72-6.4,7.1-3.18,3.59-6.18,7.34-8.95,11.28-1.89,2.69-3.89,5.28-5.72,8.02-2.59,3.86-5.04,7.82-7.39,11.82-2.64,4.48-5.09,9.08-7.39,13.74-1.84,3.71-3.63,7.45-5.24,11.25-.92,2.16-2,4.25-2.85,6.44-1.93,4.97-3.94,9.92-5.66,14.96-2.39,7.01-4.71,14.06-6.41,21.26-1.24,5.23-2.76,10.43-3.47,15.78-.56,4.17-1.35,8.29-1.96,12.45-.17,1.15.16,1.47,1.3,1.54,4.33.26,8.64.69,12.8,2.04,2.3.75,4.49,1.73,6.28,3.41,4.3,4.06,3.49,10.1-1.73,12.88-2.03,1.08-4.26,1.58-6.49,2.02-4.22.85-8.5,1.19-12.79,1.29-1.05.02-1.38.36-1.43,1.41-.74,17.45,0,34.82,2.52,52.11,1.75,11.99,4.33,23.78,8.14,35.3,2.17,6.55,4.68,12.97,7.6,19.23,2.96,6.32,6.28,12.44,10.03,18.33,3.1,4.87,6.51,9.5,9.99,14.11,3.08,4.06,6.46,7.83,9.95,11.52,1.99,2.1,4.23,3.97,6.32,5.98,3.26,3.14,7.04,5.67,10.47,8.6,1.15.98,2.54,1.69,3.81,2.54,4,2.68,7.97,5.41,12.22,7.7,2.47,1.33,4.91,2.72,7.42,3.99,4.15,2.09,8.34,4.05,12.65,5.79,3.08,1.24,6.18,2.42,9.31,3.53,3.38,1.2,6.81,2.18,10.25,3.18,3.65,1.06,7.31,1.98,11.01,2.84,4.33,1,8.68,1.81,13.07,2.5,4.39.69,8.78,1.24,13.19,1.76,3.15.36,6.32.37,9.46.74,2.91.34,5.82.1,8.71.4,3.43.35,6.85-.09,10.25.11,3.57.2,7.1-.33,10.64-.24,4.13.11,8.2-.5,12.29-.78,2-.14,2.01-.16,2.14-2.24.21-3.28.85-6.46,2.09-9.51.31-.76.45-1.56.56-2.37.37-2.57,1.73-4.36,4.27-5.1.75-.22,1.11-.66,1.38-1.35,1.01-2.56,2.79-4.26,5.64-4.38,2.95-.12,5.06,1.37,6.48,3.88.82,1.46,1.04,3.07,1.11,4.72.16,4.16.35,8.32.46,12.48.03,1.01.33,1.18,1.3,1.06,6.34-.77,12.55-2.26,18.83-3.34,5.38-.93,10.58-2.54,15.91-3.6,5.78-1.15,11.25-3.31,16.92-4.77,5.66-1.46,10.99-3.84,16.51-5.65,5.11-1.68,9.88-4.09,14.86-6.01,3.97-1.53,7.65-3.62,11.5-5.35,3.36-1.51,6.54-3.32,9.79-5.03,6.4-3.38,12.44-7.33,18.54-11.2,2.45-1.55,4.62-3.53,7.04-5.13,4.18-2.76,7.85-6.13,11.68-9.32,2.33-1.94,4.64-3.9,6.81-6.02,3.11-3.04,6.14-6.16,9.09-9.36,1.58-1.72,3.03-3.55,4.75-5.17.69-.65,1.37-1.45,1.97-2.24,2.22-2.9,4.49-5.76,6.62-8.73,2.88-4.01,5.8-8.01,8.4-12.2,1.7-2.73,3.47-5.45,4.94-8.32,2.53-4.96,5.28-9.82,7.53-14.94.91-2.06,1.85-4.14,2.76-6.2,1.18-2.68,2.36-5.39,3.25-8.2.53-1.67,1.3-3.26,1.88-4.92,2.53-7.24,4.66-14.6,6.37-22.07,1.35-5.89,2.74-11.78,3.43-17.79.44-3.87,1.04-7.71,1.25-11.62.19-3.67.46-7.34.48-11.02,0-1.15-.43-1.23-1.34-1.19-2.36.11-4.72.18-7.07.19-3.17.02-5.74-.98-6.88-4.27-.26-.74-.9-.84-1.55-.94-2.08-.32-4.14-.73-6.14-1.41-3.77-1.3-5.71-3.83-5.4-7.04.3-3.09,2.66-5.35,6.61-5.73,6.23-.59,12.5-.71,18.77-.71,2.12,0,2.14-.05,1.81-2.2-.66-4.33-1.17-8.69-1.96-13-.52-2.85-1.17-5.68-1.73-8.52-.71-3.57-1.63-7.1-2.43-10.65-.38-1.67-.87-3.36-1.38-5.02-1.05-3.41-1.93-6.86-2.94-10.29-.48-1.63-1.07-3.23-1.61-4.85-.91-2.72-1.75-5.47-2.78-8.15-.49-1.27-.81-2.63-1.47-3.8-1.37-2.4-1.29-4.95-.63-7.36.54-1.98,2.55-2.89,4.42-3.59.59-.22,1.26-.28,1.9-.3.93-.02,1.65.31,2.27,1.14,1.79,2.4,2.61,5.2,3.64,7.95.91,2.43,1.68,4.9,2.57,7.34.83,2.25,1.42,4.59,2.09,6.9.31,1.06.66,2.11.98,3.16,1.34,4.34,2.5,8.73,3.56,13.14,1.03,4.28,1.98,8.58,2.8,12.91.48,2.54.99,5.09,1.41,7.64.58,3.57,1.22,7.14,1.52,10.77.19,2.28.64,4.54.72,6.83.02.61.53.68,1.01.77,1.6.29,3.21.58,4.8.93.84.18,1.66.44,2.47.72,2.8.99,4.97,2.64,5.38,5.79.42,3.23-1.22,5.5-3.74,7.25-2.27,1.57-4.87,2.34-7.55,2.79-1.2.2-1.61.64-1.58,1.92.15,5.91-.37,11.79-.9,17.66-.76,8.42-2.19,16.73-4.08,24.96-1.55,6.76-3.03,13.53-5.33,20.1-.77,2.21-1.56,4.44-2.23,6.68-1.6,5.36-3.77,10.51-5.94,15.64-1.73,4.08-3.59,8.12-5.64,12.07-1.92,3.71-3.96,7.35-5.94,11.02-2.12,3.94-4.59,7.63-7,11.37-2.9,4.51-6.1,8.81-9.37,13.05-2.73,3.54-5.58,7-8.62,10.29-4.16,4.5-8.4,8.94-12.95,13.03-2.81,2.53-5.54,5.19-8.58,7.44-3.05,2.26-5.81,4.93-9.01,6.93-3.8,2.37-7.19,5.32-11.13,7.48-3.08,1.68-5.89,3.84-8.99,5.49-3.7,1.97-7.18,4.33-11,6.06-3.94,1.78-7.64,4.04-11.62,5.69-3.87,1.6-7.67,3.37-11.56,4.94-7.31,2.95-14.67,5.78-22.19,8.09-6.5,1.99-12.95,4.27-19.6,5.72-6.57,1.43-13.02,3.42-19.66,4.48-6.26,1-12.43,2.46-18.71,3.29-.25.03-.51.06-.77.08q-2.2.19-2.31,2.49c-.19,3.95-.6,7.87-1.58,11.71-.34,1.33-.79,2.63-1.52,3.81-2.18,3.51-6.24,4.43-9.72,2.2-2-1.28-3.42-3.06-4.03-5.32-.71-2.62-1.66-5.13-2.74-7.61-.24-.55-.39-1.13-.56-1.71-.88-2.97-.87-2.9-3.93-2.7-5.68.37-11.36.85-17.05.87-3.55.01-7.11.37-10.64.08-3.42-.28-6.86.08-10.26-.3-2.99-.33-5.99-.22-8.96-.53-5.31-.54-10.63-1.07-15.92-1.8-4.31-.6-8.59-1.4-12.86-2.27-4.05-.83-8.09-1.77-12.09-2.82-3.42-.89-6.84-1.85-10.16-3.05-3.56-1.29-7.19-2.36-10.65-3.92-1.54-.7-3.19-1.14-4.78-1.79-2.21-.91-4.42-1.86-6.56-2.9-4.32-2.09-8.7-4.08-12.77-6.67-1.33-.84-2.74-1.56-4.11-2.35-4.23-2.42-8.2-5.23-12.17-8.02-2.99-2.1-5.85-4.42-8.64-6.78-4.66-3.93-9.09-8.13-13.29-12.54-2.32-2.44-4.56-4.97-6.69-7.58-3.94-4.83-7.68-9.81-11.07-15.06-2.02-3.13-3.99-6.28-5.84-9.51-3.87-6.77-7.28-13.77-10.2-21-1.77-4.37-3.48-8.76-4.83-13.28-2.29-7.68-4.31-15.44-5.89-23.3-4.14-20.7-5.68-41.63-5.14-62.72.04-1.59.08-3.18.2-4.76.06-.89-.22-1.21-1.14-1.22-2.96-.01-5.92-.15-8.86-.5-.9-.11-1.78-.28-2.62-.61-2.89-1.13-4.36-3.76-3.73-6.79.15-.69.08-1.18-.4-1.75-2.75-3.3-1.7-7.85,2.19-9.68.78-.37,1.61-.62,2.46-.71,4.35-.5,8.62-1.57,13-1.78.88-.04,1.17-.44,1.25-1.26.84-9.16,2.85-18.09,4.86-27.05,1.03-4.61,2.52-9.08,3.63-13.65.92-3.81,2.44-7.4,3.59-11.12,1.67-5.4,3.77-10.63,5.9-15.86,1.71-4.2,3.48-8.35,5.38-12.47,1.62-3.53,3.34-7.01,5.08-10.49,2.19-4.39,4.51-8.71,7.01-12.93,2.2-3.71,4.41-7.4,6.82-10.98,2.14-3.19,4.4-6.29,6.6-9.43,2.08-2.98,4.58-5.6,6.66-8.53,2.85-4,6.51-7.25,9.56-11.06,1.64-2.05,3.74-3.74,5.64-5.58,2.85-2.76,5.62-5.6,8.65-8.16,2.9-2.45,5.73-4.99,8.69-7.37,2.9-2.33,6.04-4.36,8.87-6.77,3.56-3.04,7.64-5.3,11.37-8.08,3.96-2.95,8.37-5.16,12.46-7.86,3.83-2.54,8.05-4.3,11.96-6.64,3.81-2.28,7.98-3.71,11.93-5.66,3.58-1.77,7.4-2.92,11.07-4.42,3.59-1.46,7.37-2.22,10.99-3.5,3.74-1.32,7.66-1.78,11.45-2.82,3.66-1,7.39-1.37,11.12-1.85.21-.03.46,0,.63-.1,2.58-1.51,5.47-1.25,8.27-1.41,2.77-.15,5.52-.69,8.31-.49.72.05.98-.26.98-.98,0-1.59-.09-3.16-.35-4.74-.49-3.05.96-6.32,3.61-7.12,2.07-.62,3.51-1.6,4.62-3.36.47-.75,1.2-1.34,1.82-1.99,2.66-2.77,6.68-2.7,9.17.24,2.03,2.4,3.45,5.11,3.8,8.3.32,2.94.74,5.87,1.04,8.82.09.91.43,1.25,1.34,1.29,5.95.27,11.88.74,17.81,1.17,4.49.32,8.92,1.07,13.4,1.33,5.49.32,10.85,1.52,16.3,2.03,5.94.56,11.73,1.98,17.61,2.85,10.15,1.49,20.02,4.15,29.88,6.9.36.1.74.13,1.11.19.07-.09.14-.18.21-.27Z"/><path class="cls-1" d="m268.33,260.57c-1.07,2.43.71,4.38,2.15,6.47,10.83,15.72,22.23,31.03,33.28,46.6,3.82,5.39,7.09,11.15,11.22,16.33,3.58,4.49,7.18,8.98,10.75,13.49.98,1.24,1.93,2.53,2.78,3.86,1.04,1.62,1.38,3.41.78,5.3-.18.58-.11,1.08.16,1.6.29.57.57,1.16.75,1.77.64,2.23.29,4.28-1.37,5.96-1.7,1.72-3.79,2.11-6.06,1.4-2.44-.77-4.29-2.35-6.02-4.23-11.19-12.18-20.24-25.92-29.27-39.69-9.72-14.82-20.25-29.07-30.22-43.72-.75-1.11-1.64-1.44-2.96-1.19-4.45.87-7.39-.5-9.71-4.43-.75-1.27-1.67-2.37-2.84-3.29-5.88-4.61-6.88-10.62-2.84-16.88.96-1.48,1.24-3.34,2.44-4.65,1.13-1.23,1.43-2.47,1.25-4.15-.2-1.89.22-3.84.27-5.77.53-23.59.37-47.18-.16-70.77-.23-10.12-.57-20.26-1.54-30.32-1.03-10.66-.3-21.26-.31-31.88,0-2.67,1.03-4.85,3.56-6.08.64-.31.91-.87,1.19-1.46.68-1.43,1.63-2.62,3.11-3.3,2.84-1.3,5.95-.03,7.53,2.76,1.62,2.85,2.22,5.84,2.35,9.08.54,12.95.54,25.9.51,38.86-.04,20.94.67,41.86,1.65,62.77.59,12.55.77,25.12,1.46,37.68.09,1.73.5,3.17,1.62,4.58,2.98,3.73,4.51,8.43,4.49,13.31Z"/><path class="cls-1" d="m434.87,96.03c-.09,2.62-1.16,5-3.77,6.45-2.56,1.43-5.01,1.22-7.68-.16-2.91-1.49-4.8-3.81-6.54-6.36-3.17-4.66-.28-10.58,5.47-11.28,6.16-.76,12.52,4.86,12.52,11.35Z"/><path class="cls-1" d="m409.67,73.89c.02,6-4.47,10.05-9.3,8.96-1.96-.45-3.45-1.68-4.88-2.98-.95-.86-1.84-1.8-2.71-2.75-3.13-3.44-2.46-8.51,1.43-11.04,3.12-2.03,6.4-3.05,9.9-1.04,3.6,2.07,5.34,5.31,5.55,8.85Z"/><path class="cls-1" d="m454.87,146.12c-5.53.05-8.79-3.56-8.16-9.05.67-5.86,5.1-9.04,10.91-7.81,4.24.89,6.76,4.73,5.78,8.96-.32,1.37-.78,2.72-1.33,4.02-1.12,2.64-3.44,3.85-7.2,3.88Z"/><path class="cls-1" d="m432.94,114.32c.02-4.78,3.41-8.03,8.34-7.98,4.85.04,8.42,3.44,8.43,8.02,0,4.71-4.14,8.72-9.01,8.7-4.6-.01-7.76-3.58-7.75-8.74Z"/></svg>