<?xml version="1.0" encoding="UTF-8"?><svg id="Layer_1" xmlns="http://www.w3.org/2000/svg" viewBox="0 0 512 512"><defs><style>.cls-1{stroke-width:0px;}</style></defs><path class="cls-1" d="m492.02,250.2c.17,19.13-1.21,38.1-5.55,56.79-1.18,5.07-2.54,10.09-4.21,15.02-.45,1.33-.51,2.58-.28,3.96,3.53,21.07,1.75,41.74-5.14,61.92-5.41,15.84-15.41,28.44-28.35,38.83-13.45,10.81-28.49,18.76-44.61,24.75-18.6,6.91-37.75,11.18-57.67,11.57-7.88.16-15.72-.33-23.51-1.55-1.69-.27-3.27-.16-4.92.32-15.6,4.46-31.42,7.9-47.52,10-8.51,1.11-17.07,1.65-25.63,2.29-4.17.31-8.31.17-12.46.15-19.55-.06-39-1.43-58.08-5.94-37.41-8.83-69.56-26.97-95.9-55.07-14.79-15.77-25.33-34.21-33.1-54.3-7.7-19.92-12.6-40.55-15.77-61.63-1.4-9.27-2.46-18.58-3.18-27.93-.09-1.11-.22-2.21-.62-3.26-.27-.71-.4-1.49-.22-2.23.43-1.82.26-3.64.15-5.46-1.58-26.18,2.11-51.65,10.13-76.57,4.52-14.05,9.5-27.9,16.47-40.95,9.11-17.07,21.23-31.79,35.15-45.11,21.64-20.71,46.93-35.44,74.91-45.76,20.74-7.66,42.14-12.56,64.03-15.46,10.44-1.39,20.9-2.47,31.43-2.91,9.52-.4,18.93.57,28.34,2.1,13.95,2.28,27.93,4.39,41.98,6.04,36.74,4.3,69.56,18.2,99.06,40.22,17.07,12.74,29.56,29.25,38.74,48.35,12.2,25.38,19.97,52.08,23.63,79.98,1.82,13.88,2.62,27.83,2.73,41.83Zm-148.69,202.29c20.42-.11,39.59-4.39,58.19-11.46,15.1-5.74,29.15-13.35,41.67-23.67,13.52-11.14,22.44-25.12,26.45-42.22,2.68-11.44,3.94-23.02,3.34-34.75-.81-15.87-5.01-30.78-13.28-44.41-8.02-13.22-18.47-24.05-32.24-31.34-12.37-6.55-25.74-9.1-39.61-9.53-10.64-.33-21.01,1.85-31.48,3.16-4.24.53-8.45,1.3-12.66,2-7.06,1.17-14.05,2.67-21.09,3.97-5.26.97-10.16,2.94-14.96,5.25-3.11,1.49-6.31,2.8-9.3,4.55-3.43,2.01-6.28,4.81-9.39,7.26-3.34,2.63-6.25,5.75-9.09,8.92-14.91,16.62-24.06,35.87-26.16,58.2-1.87,19.9,1.28,39.13,8.62,57.67,7.86,19.87,22.11,33.07,42.18,40.13,12.7,4.47,25.83,6.2,38.8,6.29Zm-164.85-198.04c24.93-1.02,43.42-2.61,61.97-3.06.99-.02,1.29-.41,1.33-1.34.11-2.18.28-4.36.46-6.54,2.16-25.84,4.32-51.69,6.48-77.53.13-1.52.13-1.55-1.36-1.6-9.01-.3-18.02-.63-27.03-.87-25.26-.67-50.51-.46-75.77,0-.88.02-1.34.27-1.61,1.17-2.35,7.88-4.54,15.8-6.16,23.87-2.43,12.12-3.8,24.4-5.44,36.64-1.3,9.76-2.45,19.55-3.07,29.38-.06.97.06,1.43,1.22,1.39,18.46-.59,36.92-1.15,48.97-1.51Zm118.41-5.14c12.38-.48,24.77-.67,37.16-.65,4.87,0,9.66-.46,14.44-1.38,7.34-1.41,14.69-2.68,22.2-2.67,2.07,0,1.94.31,1.98-2.01.22-11.12.01-22.24-.72-33.34-.96-14.66-3.62-28.98-8.22-42.94-.38-1.17-.92-1.5-2.11-1.44-4.88.23-9.76.39-14.65.5-28.67.68-57.34.55-86.01-.49-1.13-.04-1.58.16-1.69,1.41-1.6,19.31-3.26,38.62-4.88,57.93-.71,8.47-1.32,16.95-2.02,25.41-.09,1.08.22,1.48,1.28,1.31.31-.05.63-.02.95-.03,14.09-.54,28.17-1.09,42.26-1.63Zm-112.38,15.57c-18.38.55-36.76,1.12-55.14,1.64-1.13.03-1.48.34-1.47,1.49.06,10,.95,19.91,2.86,29.72,3.79,19.48,10.37,38.05,18.37,56.15.46,1.05,1.01,1.38,2.14,1.32,12.41-.64,24.82-1.45,37.25-1.67,15.45-.28,30.89-.44,46.34-.61,1.22-.01,1.6-.36,1.65-1.61.69-15.39,1.45-30.78,2.18-46.17.67-13.92,1.34-27.85,2.22-41.76.07-1.07-.14-1.48-1.32-1.41-3.17.19-6.35.25-9.52.38-15.2.66-30.36,1.88-45.56,2.52Zm93.97-221.18c.05.11.05.16.08.17,1.35.67,2.72,1.31,4.06,2,11.76,6.03,22.16,13.94,31.81,22.89,9.57,8.88,17.6,19.06,25.21,29.62,12.3,17.07,23.3,34.87,30.63,54.72.28.76.74.91,1.45.87,5.08-.28,10.15-.5,15.23-.81,13.89-.83,27.57-3.48,41.4-4.87,8.8-.89,17.53-2.46,26.42-2.5,1.9,0,3.79-.37,5.69-.52.92-.07,1.05-.42.68-1.22-1.14-2.49-2.19-5.02-3.34-7.51-5.85-12.66-13.03-24.45-22.56-34.72-8.88-9.57-19.25-17.28-30.38-23.99-15.55-9.37-31.85-17.03-49.41-21.89-13.64-3.77-27.64-5.37-41.64-7.02-8.04-.95-16.03-2.17-24.03-3.38-3.76-.57-7.5-1.22-11.3-1.85Zm171.74,207.68c9.21,0,18.43,0,27.64,0,.79,0,1.58-.12,2.38-.14.9-.03,1.22-.42,1.19-1.34-.1-2.94-.1-5.88-.2-8.81-.61-18.34-2.46-36.52-6.54-54.45-2.3-10.12-5.23-20.05-8.65-29.85-.31-.9-.74-1.32-1.71-1.2-1.26.15-2.53.22-3.79.37-5.02.62-10.09.36-15.1.87-9.91,1-19.79,2.37-29.67,3.64-13.28,1.71-26.53,3.51-39.93,3.93-1.59.05-1.6.08-1.11,1.63,3.28,10.53,5.62,21.26,6.84,32.23,1.65,14.87,1.98,29.79,1.69,44.73-.03,1.54-.03,1.55,1.55,1.53,11.49-.13,22.72,1.47,33.69,4.91.91.29,1.84.52,2.8.56,9.64.42,19.27,1.04,28.92,1.38Zm-373.54,5.86c13.27-.06,26.52-.64,39.78-.95.96-.02,1.2-.4,1.23-1.28.08-2.02.23-4.04.39-6.06.94-12.04,2.67-23.99,4.18-35.97,2.04-16.22,4.73-32.3,9.55-47.96.36-1.19.34-1.2-1.16-1.16-16.08.43-32.14,1.22-48.17,2.68-7.95.73-15.92,1.32-23.91.81-1.9-.12-3.77-.28-5.68.19-.88.22-1.36.47-1.68,1.33-4.29,11.68-7.98,23.54-10.82,35.66-3.99,17.02-5.21,34.28-4.44,51.71.04.96.28,1.32,1.32,1.22,2.01-.19,4.04-.26,6.07-.33,11.12-.36,22.24.03,33.36.1Zm.67,10.4c-5.32,0-10.64.02-15.96,0-7.74-.03-15.48-.12-23.22.34-1.19.07-1.52.45-1.42,1.66,1.66,19.42,4.51,38.64,9.35,57.54,2.27,8.85,4.94,17.58,8.18,26.13.79,2.08,2.5,3.12,4.67,2.86,3.12-.38,6.26-.44,9.39-.21,8.52.61,17.05.8,25.59.4,11.39-.54,22.78-.64,34.18-.59,2.94.01,5.88-.05,8.81-.1,1.37-.02,1.38-.04.82-1.31-3.36-7.77-6.36-15.67-9.1-23.68-6.93-20.32-11.39-41.08-11.32-62.65,0-1.14-.56-1.16-1.42-1.14-12.86.33-25.72.88-38.58.76Zm152.2,195.9c-.23-.5-.61-.59-.91-.76-3.4-1.89-6.73-3.91-10.03-5.97-12.02-7.5-23.13-16.09-32.65-26.66-16.91-18.78-30.99-39.44-41.88-62.26-.64-1.33-1.33-1.84-2.86-1.78-4.88.19-9.77.24-14.65.23-9.93-.02-19.86.05-29.78.5-8.42.38-16.83.48-25.24-.08-3.41-.23-6.81-.54-10.23-.19-1.37.14-1.38.15-.8,1.4,5.98,12.63,13.31,24.43,22.61,34.88,25.28,28.4,56.74,46.45,93.61,55.19,15.44,3.66,31.19,5.03,47.02,5.49,1.9.05,3.8,0,5.8,0Zm-31.28-310.99c16.68.1,33.35.63,50.02,1.29,1.15.05,1.48-.29,1.57-1.4,1.62-19.64,2.88-39.29,3.03-59,.09-12.11.16-24.23.67-36.33.1-2.42.21-4.84.31-7.26.02-.5.1-.99-.74-.68-2.61.96-5.16,2.03-7.54,3.5-4.19,2.58-8.43,5.1-12.69,7.56-13.95,8.06-27.34,16.91-39.89,27.05-21.18,17.11-37,37.96-45.63,63.98-.54,1.63-.57,1.62,1.1,1.59,16.6-.28,33.2-.37,49.8-.29Zm41.16-108.88c-2.29.26-4.38.49-6.46.74-22.68,2.69-44.87,7.46-66.37,15.29-30.72,11.19-57.81,27.96-80.22,51.97-12.13,12.99-22.31,27.27-29.57,43.56q-.58,1.31.86,1.43c5.88.5,11.75.32,17.61-.19,18.91-1.66,37.85-2.86,56.84-3.24,3.39-.07,3.41-.07,4.5-3.34,6.7-20.17,16.8-38.36,31.47-53.88,11.9-12.6,25.42-23.24,39.79-32.85,9.81-6.56,20.15-12.25,30.24-18.36.42-.26.95-.4,1.33-1.12Zm23.9,58.82c-.32,16.84-1.51,33.64-2.92,50.41-.1,1.15.23,1.43,1.31,1.45,5.28.12,10.56.37,15.84.47,26.88.51,53.76.63,80.64-.38.96-.04,1.19-.26.78-1.18-1.36-3.05-2.57-6.16-4-9.17-9.23-19.56-21.44-37.2-35.03-53.91-11.28-13.88-24.72-25.31-40.43-33.97-4.4-2.42-9.01-4.34-13.92-5.5-.92-.22-1.21,0-1.23.93-.05,2.14-.17,4.28-.26,6.43-.61,14.8-.48,29.62-.78,44.43Zm-28.11,308.97c0-18.13.25-32.34.75-46.55.04-1.17-.29-1.48-1.44-1.45-3.81.12-7.62.16-11.43.19-22.24.14-44.47.46-66.67,1.88-1.67.11-1.67.1-.95,1.54,8.66,17.39,19.48,33.33,31.71,48.41,13.3,16.4,29.67,28.79,48.04,38.8.3.16.63.52.96.32.35-.22.12-.66.08-.99-.36-3.16-.57-6.33-.62-9.51-.18-12.19-.33-24.38-.44-32.65Zm65.11-151.64c-.4,0-.89-.01-1.39,0-15.4.51-30.78,1.39-46.18,1.73-.95.02-1.21.38-1.26,1.26-1.14,19.26-2.05,38.53-2.96,57.81-.01.28-.12.61.21.94,9.94-26.71,27.46-46.96,51.57-61.74Zm-54.1,130.3c-.1.01-.2.02-.31.03,0,.54,0,1.07,0,1.61-.28,17.56.05,35.11.34,52.66.08,4.53.51,9.04,1.46,13.48.23,1.06.53,1.08,1.37.54,8.06-5.28,15.63-11.17,22.59-17.85.75-.72.82-1.11.01-1.85-4.73-4.36-8.73-9.33-12.13-14.79-6.2-9.95-10.13-20.82-12.91-32.15-.14-.56-.28-1.12-.42-1.68Zm196.85-128.23c14.8,11.3,25.67,25.53,32.88,42.88.2-.58.31-.83.37-1.09,3.04-13.44,4.5-27.08,4.95-40.83.02-.69-.15-.98-.92-.97-12.03.15-24.05.09-36.07-.23-.35,0-.71-.11-1.21.24Zm-144.09,193.85c-.38-.56-.84-.61-1.24-.76-5.47-2.18-10.72-4.79-15.63-8.05-.82-.55-1.3-.51-2.01.19-5.07,5.04-10.5,9.67-16.24,13.93-.27.2-.65.32-.74.92,12.1-1.3,23.99-3.43,35.85-6.22Z"/><path class="cls-1" d="m377.07,309.86c-.07,10.64-.32,21.28-.02,31.92.08,2.9.26,5.79.64,8.67.18,1.38.46,2.73,1.04,4.01.62,1.37.72,2.84.46,4.32-.41,2.42-2.1,4.18-4.5,4.65-.56.11-1.06.24-1.49.65-8.49,8.09-17.67,15.38-26.65,22.89-5.12,4.28-10.24,8.55-15.17,13.05-2.46,2.24-4.87,4.55-7.43,6.69-2.04,1.7-3.3,1.97-5.28.93-1.96-1.03-3.05-3.17-2.77-5.37.22-1.75,1.21-3.08,2.38-4.3,2.99-3.13,6.19-6.05,9.44-8.91,10.27-9.01,21.02-17.45,31.32-26.42,2.63-2.29,5.31-4.55,7.66-7.14.64-.71.86-1.41.69-2.37-.84-5.03-.96-10.12-1.03-15.2-.21-15.13.25-30.26.19-45.38-.02-5.48.02-10.96-.21-16.44-.06-1.43-.13-2.85-.4-4.26-.23-1.19-.12-2.37.36-3.5,1.28-3.01,6.14-3.99,8.47-1.7,1.1,1.08,1.61,2.43,1.8,3.93.35,2.8.4,5.62.46,8.44.23,10.28.07,20.57.03,30.85Z"/></svg>