<?xml version="1.0" encoding="UTF-8"?><svg xmlns="http://www.w3.org/2000/svg" viewBox="0 0 64 64"><defs><style>.cls-1{fill:#231f20;mix-blend-mode:multiply;stroke-width:0px;}.cls-2{isolation:isolate;}</style></defs><g class="cls-2"><g id="Layer_1"><path class="cls-1" d="m61.43,13.74c-2.17.96-4.49,1.61-6.94,1.9,2.49-1.49,4.41-3.86,5.31-6.68-2.33,1.38-4.92,2.39-7.67,2.93-2.2-2.35-5.34-3.81-8.82-3.81-6.67,0-12.08,5.41-12.08,12.08,0,.95.11,1.87.31,2.75-10.04-.5-18.94-5.31-24.89-12.62-1.04,1.78-1.64,3.86-1.64,6.07,0,4.19,2.13,7.89,5.37,10.05-1.98-.06-3.84-.61-5.47-1.51,0,.05,0,.1,0,.15,0,5.85,4.16,10.73,9.69,11.84-1.01.28-2.08.42-3.18.42-.78,0-1.53-.08-2.27-.22,1.54,4.8,6,8.29,11.28,8.39-4.13,3.24-9.34,5.17-15,5.17-.97,0-1.94-.06-2.88-.17,5.34,3.43,11.69,5.43,18.51,5.43,22.22,0,34.36-18.4,34.36-34.36,0-.52-.01-1.04-.03-1.56,2.36-1.7,4.41-3.83,6.03-6.25Z"/></g></g></svg>