<?xml version="1.0" encoding="UTF-8"?><svg id="Layer_1" xmlns="http://www.w3.org/2000/svg" viewBox="0 0 64 64"><defs><style>.cls-1{fill:#231f20;stroke-width:0px;}</style></defs><path class="cls-1" d="m32,7.83c7.87,0,8.81.03,11.91.17,2.87.13,4.44.61,5.48,1.02,1.38.53,2.36,1.17,3.39,2.21,1.03,1.03,1.67,2.01,2.21,3.39.4,1.04.88,2.6,1.02,5.48.14,3.11.17,4.04.17,11.91s-.03,8.81-.17,11.91c-.13,2.87-.61,4.44-1.02,5.48-.53,1.38-1.17,2.36-2.21,3.39-1.03,1.03-2.01,1.67-3.39,2.21-1.04.4-2.6.88-5.48,1.02-3.11.14-4.04.17-11.91.17s-8.81-.03-11.91-.17c-2.87-.13-4.44-.61-5.48-1.02-1.38-.53-2.36-1.17-3.39-2.21-1.03-1.03-1.67-2.01-2.21-3.39-.4-1.04-.88-2.6-1.02-5.48-.14-3.11-.17-4.04-.17-11.91s.03-8.81.17-11.91c.13-2.87.61-4.44,1.02-5.48.53-1.38,1.17-2.36,2.21-3.39,1.03-1.03,2.01-1.67,3.39-2.21,1.04-.4,2.6-.88,5.48-1.02,3.11-.14,4.04-.17,11.91-.17m0-5.31c-8.01,0-9.01.03-12.16.18-3.14.14-5.28.64-7.16,1.37-1.94.75-3.58,1.76-5.22,3.4-1.64,1.64-2.65,3.28-3.4,5.22-.73,1.88-1.23,4.02-1.37,7.16-.14,3.14-.18,4.15-.18,12.16s.03,9.01.18,12.16c.14,3.14.64,5.28,1.37,7.16.75,1.94,1.76,3.58,3.4,5.22,1.64,1.64,3.28,2.65,5.22,3.4,1.88.73,4.02,1.23,7.16,1.37,3.14.14,4.15.18,12.16.18s9.01-.03,12.16-.18c3.14-.14,5.28-.64,7.16-1.37,1.94-.75,3.58-1.76,5.22-3.4,1.64-1.64,2.65-3.28,3.4-5.22.73-1.88,1.23-4.02,1.37-7.16.14-3.14.18-4.15.18-12.16s-.03-9.01-.18-12.16c-.14-3.14-.64-5.28-1.37-7.16-.75-1.94-1.76-3.58-3.4-5.22-1.64-1.64-3.28-2.65-5.22-3.4-1.88-.73-4.02-1.23-7.16-1.37-3.14-.14-4.15-.18-12.16-.18h0Z"/><path class="cls-1" d="m32,16.86c-8.36,0-15.14,6.78-15.14,15.14s6.78,15.14,15.14,15.14,15.14-6.78,15.14-15.14-6.78-15.14-15.14-15.14Zm0,24.97c-5.43,0-9.83-4.4-9.83-9.83s4.4-9.83,9.83-9.83,9.83,4.4,9.83,9.83-4.4,9.83-9.83,9.83Z"/><circle class="cls-1" cx="47.74" cy="16.26" r="3.54"/></svg>