<?xml version="1.0" encoding="UTF-8"?>
<svg viewBox="0 0 880 278.7" xmlns="http://www.w3.org/2000/svg">
<style>.st1{fill:#355c7d}</style>
<path d="M601.5 206c.1 5.5-1.4 10.5-3.3 15.3-.2.5-.2.9 0 1.3 2 5.6 2.8 11.5 2.5 17.4-.2 4.4-1.4 8.6-3.2 12.6-2 4.5-4.9 8.5-8.5 11.9-4.2 4-9.2 6.7-14.8 8.3-4.1 1.2-8.4 1.5-12.6 1.2-5.5-.5-10.7-2.2-15.5-5-3.1-1.8-5.9-4-8.8-6.2-4.6-3.5-9.7-6-15.4-7-5.7-1-11.4-.9-17 .8-4.1 1.3-7.9 3.4-11.3 6-3.5 2.7-7.1 5.3-11.1 7.3s-8.2 3.4-12.7 3.9c-8.8 1.1-17.2-.5-24.8-5.1-8-4.8-13.5-11.4-15.9-20.5-1.1-4.2-1.2-8.5-.4-12.8.3-1.6.6-3.1 1.1-4.7.1-.3.1-.5-.1-.8-1.2-2.3-2.2-4.8-2.9-7.3-.6-2-1-4.1-1.3-6.2-.4-3.3-.4-6.6-.1-9.9.7-6.8 3-13 6.8-18.6 3.5-5 7.9-8.9 13.2-11.9.6-.3 1-.8 1.2-1.4 1.9-4.7 4.2-9.3 7.4-13.3 6.8-8.8 15.6-14.5 26.5-16.9 3-.6 6-.9 9.1-.8.6 0 1.2-.1 1.7-.5 4.9-3.5 10.2-5.6 16.1-6.6 6.9-1.1 13.7-.7 20.4 1.2 4.2 1.2 8.1 3 11.7 5.3.5.3 1.1.5 1.7.5 4.6-.1 8.7 1.2 12.3 4.1 2.1 1.7 3.7 3.9 4.7 6.5.3.7.6 1.1 1.4 1.3 5.4 1.2 9.9 3.9 13.8 7.8 3.6 3.7 5.9 8.3 7.1 13.3.2.9.6 1.3 1.4 1.6 3.1 1.1 5.9 2.8 8.4 4.9 5.6 4.5 9.3 10.2 10.7 17.3.3 2 .5 4 .5 5.7zm-85.6-8.5v8.8c0 .9 0 .9 1 .9 5.6 0 11.1-.1 16.7.2 5.2.3 10.2 1.1 15.1 2.9 4.8 1.7 9 4.3 12.7 7.7 4.7 4.3 8.1 9.5 9.9 15.6 1 3.4.7 6.6-1.5 9.5-2.1 2.7-5.4 3.8-8.7 2-1.1-.6-2-1.4-2.9-2.1-1.9-1.5-3.5-3.2-5.4-4.7-2.7-2.2-5.6-4.2-8.8-5.8-4.1-2-8.4-3.5-12.9-4.4-2.9-.6-5.8-.9-8.7-1.1-8.1-.4-16.1-.1-24 1.9-3.7 1-7.3 2.4-10.6 4.3-2.2 1.2-4.2 2.6-6.2 4.1-2.2 1.7-4.3 3.4-6.4 5.1-2.2 1.7-4.4 3.4-7.2 4.2-3.7 1.1-7.1.6-10-2.1-2.4-2.2-3.8-4.9-4.9-7.9-.3-.7-.7-1.3-1.3-1.7-2.1-1.5-4.1-3-5.8-4.9-1-1.1-1.9-2.2-2.7-3.4-1-1.4-1.9-3-2.5-4.6-2.3-5.7-2.7-11.5-1.5-17.5 1.1-5.3 3.8-9.8 8-13.2 3.2-2.6 7-4 11-4.7.8-.1.8-.6.9-1.2.5-4.7 1.9-9.1 4.3-13.2 4.3-7.1 10.4-11.8 18.4-14 .4-.1.6-.3.6-.7 0-.4.1-.9.2-1.3.3-1.7.9-3.3 1.4-4.9.1-.4.1-.5-.4-.5-2.1.2-4.2.7-6.2 1.3-6.7 2.2-12.2 6.2-16.8 11.5-4.3 4.9-7 10.6-8.1 17-.1.4-.3.5-.6.6-1.9.7-3.8 1.5-5.6 2.4-5.5 3.1-9.3 7.7-11.9 13.4-.5 1.1-1 2.3-1.3 3.6-.5 1.9-1 3.7-1.2 5.7-.2 1.5-.1 3.1-.1 4.7 0 1.3 0 2.6.2 3.9.2 1.8.6 3.5 1.1 5.3 2.2 7.6 6.3 14.1 12.8 18.8.6.4 1 .9 1.3 1.6 1.9 4.1 4.4 7.8 8.2 10.4 3.7 2.5 7.7 3.5 12.1 2.7 3.2-.6 6-2 8.7-3.7 2.6-1.7 4.8-3.8 7.2-5.8 6.3-5.1 13.2-8.6 21.2-10.1 4.8-.8 9.6-.9 14.4-.8 3.4.1 6.8.5 10.2 1.2 1.9.4 3.8 1 5.7 1.6 4 1.4 7.7 3.4 11.1 6 3.1 2.3 5.9 4.9 8.9 7.4 1.8 1.5 3.8 2.8 6.1 3.2 6.1 1.2 11.2-.7 15-5.6 2.9-3.8 3.9-8.1 3.3-12.8-.5-4.1-2.2-7.9-4.3-11.5-2.1-3.6-4.7-6.8-7.8-9.7-3.6-3.4-7.7-6.2-12.3-8.2-6.1-2.7-12.6-4-19.2-4.6-4-.3-8-.3-12-.2-.6 0-.8-.2-.8-.8v-10.7c0-2.6-.6-5.1-1.9-7.4-2.8-5.1-7.1-8.2-12.8-9.3-2.3-.5-4.7-.8-6.8-1.8-2.4-1.1-4.3-2.8-5.2-5.4-1.3-3.8.1-8.3 3.5-10.9 3-2.3 6.4-3.5 10-4.1 6.2-.9 12.2-.2 17.9 2.3 2.9 1.3 5.5 2.9 8.3 4.4 2.3 1.2 4.6 1.6 7.1.8 2.3-.8 4.6-1.6 7.1-1.8.8-.1.9-.2.5-.9-1.2-2.2-3.2-3.3-5.6-3.8-1.9-.4-3.9-.2-5.8-.1-.5 0-.9-.1-1.3-.4-2.9-2.5-6.3-4.2-9.9-5.5-3.7-1.3-7.5-2-11.4-2.1-5.1-.2-10.1.4-14.9 2.2-5.2 2-9.3 5.2-11.4 10.5-1.9 4.7-2 9.4.5 13.9 2.4 4.4 6.3 6.7 10.9 8.1 2 .6 4.1.7 6.1 1.3 5.1 1.6 8.3 5.2 8.2 11-.3 2.9-.2 5.4-.2 7.9zm47.7 70.1c8.6 0 15.5-2.9 21.4-8.5 3.5-3.3 5.8-7.4 7.3-12 2.2-6.9 1.8-13.7-.3-20.5-.8-2.6-1.9-5.1-3.2-7.6-1.3-2.5-2.7-5-4.3-7.3-1.8-2.6-3.8-5-5.8-7.5-1.9-2.3-4.1-4.3-6.5-6.1a38.8 38.8 0 0 0-4.8-3c-.4-.2-.6-.5-.2-.9.6-.6.9-1.3 1.4-1.9 2-2.6 3.6-5.4 4.4-8.7 1.9-7.7-1.6-15.3-8.4-19.3-5.2-3-10.8-3.6-16.6-1.9-5.8 1.6-10 5.2-13.2 10.2-2.5 3.9-4 8.1-4.9 12.6-.4 2-.6 4.1-.7 6.2 0 .4 0 .8.5.8 1.8.1 3.5.3 5.3.2.6 0 .8-.3.9-.9.1-1.9.3-3.9.8-5.8 1.2-5.1 3.3-9.7 7.1-13.3 4.2-3.9 9.1-5.4 14.7-3.5 4.5 1.5 7.2 4.7 7.9 9.4.4 3-.7 5.8-2.3 8.3-1.4 2.2-3.2 4.2-4.8 6.2-.8 1-1.7 2.1-2.2 3.3-.4.8-.2 1.2.6 1.6l2.7 1.2c3.4 1.6 6.7 3.5 9.6 6 3.1 2.7 5.7 5.8 8 9.2 2.8 4.2 5.4 8.5 6.9 13.3 1.4 4.4 2.2 8.8 1.3 13.5-1.2 6.4-4.2 11.7-9.8 15.4-3.5 2.3-7.4 3.5-11.5 3.6-4.1.1-7.8-1.2-11.4-3-3.3-1.7-6-4.1-8.9-6.3-3.9-3-8.2-5.2-12.8-6.7-3.8-1.2-7.6-1.9-11.6-2.2-6-.4-11.9.2-17.7 1.7-5.8 1.5-11.1 4-15.9 7.5-3 2.2-5.9 4.4-9.2 6.1-7 3.6-14.1 4.7-21.7 2-4.9-1.7-8.7-4.8-11.7-8.9-1-1.4-1.8-3-2.7-4.6-1.5-2.6-3.9-4.5-6-6.6-.1-.1-.3-.4-.5-.3-.2.1-.1.4-.1.6-.2 3.1.3 6.1 1.4 9 1.2 3.4 3 6.5 5.4 9.1 1.9 2.1 4.1 4 6.6 5.4 10.3 6 20.8 5.9 31.4.8 3.4-1.6 6.4-3.9 9.4-6.2 4.1-3.2 8.5-5.7 13.5-7.2 4.5-1.4 9.1-2.1 13.8-1.9 5 .2 9.9 1 14.5 2.8 1.6.6 3.1 1.4 4.6 2.2 2.3 1.3 4.4 2.8 6.4 4.4 2.8 2.1 5.6 4.2 8.7 5.9 4.2 2.7 8.7 4.1 13.2 4.1zM520.8 214H510c-1.2 0-1.2 0-1.2-1.2 0-4.4.1-8.9.1-13.3 0-3.4-.9-6.6-3.2-9.2-4-4.5-9-6-14.8-4.9-2.4.4-4.7 1.3-7 1.9-1.8.5-3.6 1-5.5.8-1.5-.1-2.7-.7-3.8-1.7-1.3-1.2-1.9-2.9-2.5-4.5v-.3c.8-1.9 1.9-3.7 3.7-4.7 1.6-.9 2.9-1 3.9.8.6 1 1.3 2 2 2.9.3.4.7.5 1.2.3 1.5-.6 2.7-1.5 3.9-2.5.5-.4.5-.8.1-1.2-1.6-2-2.9-4.3-4-6.7-.5-1-1.1-1.5-2.2-1.6-2.1-.2-4.1.2-6 .9-2.7 1.1-4.8 3.1-6.5 5.5-1 1.5-1.8 3.1-2.2 4.9-.6 2.3-.9 4.7 0 7.1.8 2 2.2 3.6 3.9 4.9 3.3 2.7 7 3.8 11.2 3 2.8-.5 5.4-1.5 8.1-2.3 1.8-.6 3.7-1 5.6-.8 3.2.4 6.5 3.2 6.6 6.6v14.9c0 .3.1.6-.4.6-1.5.1-3 .2-4.4.5-1.7.4-3.4.5-5.1 1-1.3.4-2.6.8-3.8 1.4-1.7.8-3.3 1.7-4.7 2.9-1.4 1.1-2.6 2.5-3.6 4-.2.4-.2.6.1 1 .9.9 1.7 1.9 2.6 2.8.2.2.5.4.7.2.2-.3.5-.4.8-.6 2.9-2.5 6.2-4.4 9.9-5.4 2.5-.7 5-1 7.6-1.1 4.7-.1 9.4-.2 14.1-.2 6 0 12-.1 17.9.4 8.2.7 15.3 4.1 21.4 9.5 2.4 2.1 4.6 4.3 6.3 7 .2.3.4.5.6.7.6.5 1.2.5 1.8.1 1.1-.7 1.7-2.6 1.2-3.8-.9-2.2-2.3-4.1-3.7-6-2.1-2.9-4.5-5.6-7.5-7.6-5.7-3.7-11.9-5.8-18.6-6.6-4.4-.4-9-.4-13.8-.4zm-69.7-1.5c0-.9.1-1.9.3-2.8.7-3 2.1-5.4 4.8-6.9 2.1-1.1 4.7-.8 6.2.7.6.6.6 1.1-.2 1.5-1.7 1-3.1 2.5-4.2 4.1-.7 1-1.3 2.2-1.3 3.5 0 2.1 2.2 4.4 4.3 4.7.4.1.5-.2.7-.4.7-1 1.2-2.2 1.7-3.3.8-2 1.7-4 3-5.8 1.1-1.5 2.4-2.9 3.7-4.2.3-.3.4-.5.2-1-.4-.8-.9-1.5-1.4-2.2-1.9-2.4-4.1-4.4-7.2-5-5.1-1-9.4.7-12.7 4.6-4.1 4.7-4.9 10.3-4.2 16.3.3 2.4 1.3 4.6 2.5 6.7 1.1 2 2.7 3.6 4.3 5.2 1.4 1.3 3.1 2.4 4.6 3.5 1.6 1.2 2.9 2.7 3.7 4.6.4 1 .8 2.1 1.4 3 .9 1.4 2.7 2.3 4.2 1.8 1.6-.5 2.7-1.6 2.7-3.7s-1-3.8-2.3-5.4c-1.9-2.4-4.3-4.1-6.5-6.1-.7-.6-1.5-1.1-2.2-1.7-3.7-2.9-5.9-6.8-6.1-11.7zm19.3 13.3h.6c1.3.1 1.1.2 1.3-1v-.2c.7-4 2.5-7.4 5.7-9.9 5-4 10.7-6.1 16.9-7.3.5-.1.7-.2.7-.8-.1-1.9-.3-3.8-.6-5.7-.1-.5-.3-.5-.7-.4-2.4.3-4.7.8-7.1 1.5-5.7 1.8-10.9 4.4-15.1 8.7-3.8 3.9-6 8.6-6.5 14-.1.5.1.7.6.7 1.5.2 2.9.3 4.2.4zm124.4-20.2c0-2.2-.3-4.4-1-6.4-1.4-3.9-3.7-7.3-6.9-9.9-2.5-2.1-5.4-3.6-8.5-4.7-.5-.2-.9-.1-1.1.5-.5 2-.9 3.9-1.3 5.9-.1.6.1 1 .7 1.1 1.9.5 3.6 1.3 5.2 2.5 2.3 1.7 3.9 3.9 4.8 6.6.5 1.7.6 3.4.5 5.1 0 .5 0 .9.4 1.2 1.8 1.7 3.3 3.7 4.5 5.8.1.2.3.6.6.5.4 0 .5-.4.6-.7 1.1-2.3 1.5-4.8 1.5-7.5zm-51.7-13.8v1.1c0 .5.2.7.7.8 1.7.2 3.4.6 5.1 1 .9.2.9.1.9-.8 0-2.4.3-4.8 1.2-7.1.7-1.7 1.6-3.1 3.5-3.7.9-.2 1.7-.2 2.6-.2.4 0 .7 0 1.1-.1 1.4-.7 2.3-3.9 1.3-5.1-.1-.2-.3-.3-.5-.5-1.9-1.4-4.1-1.5-6.3-.9-3.2.9-5.5 2.8-7.1 5.6-1.7 3.1-2.3 6.4-2.5 9.9zm-29.9-34.9c-.7 0-1.3.1-2 .1-1.8.1-3.6.4-5.3 1.1-1.1.5-2.1 1-2.8 2-1.2 1.7-.4 3.7 1.7 4 1.7.3 3.5.2 5.2.3 1.6.1 3.2.3 4.6 1.2.6.4 1 .3 1.3-.3 1.5-2.4 3.3-4.6 5.4-6.5.4-.4.3-.6-.2-.8-2.6-.8-5.2-1-7.9-1.1zm20.3 7.6c0-.2-.2-.4-.4-.5-1.4-1.1-2.8-2.2-4.3-3.1-.9-.5-.9-.5-1.5.3-1.9 2.5-3.6 5.3-5 8.1-.5 1-.5 1 .4 1.6 1 .7 2 1.5 2.8 2.4 1 1.2 1 1.2 1.8-.1 1.7-2.9 3.8-5.6 6-8.1 0-.2.2-.3.2-.6z" fill="#ee455b"/>
<path class="st1" d="m167.2 5.3v135.6h-42.3v-67.6l-20.9 67.6h-36.4l-20.8-67.6v67.6h-42.5v-135.6h52.1l29.9 81.4 29.1-81.4h51.8zm61.7 0v135.6h-42.5v-135.6h42.5zm149.1 135.6h-42.5l-45-68.2v68.2h-42.5v-135.6h42.5l45 69.3v-69.3h42.5v135.6zm112.9-127c10.7 5.7 18.9 13.7 24.6 23.9s8.6 21.8 8.6 34.8c0 12.9-2.9 24.5-8.6 34.8s-13.9 18.5-24.6 24.4-23.1 8.9-37.2 8.9h-56.5v-135.4h56.5c14.1 0 26.5 2.9 37.2 8.6zm-18.3 81.2c5.6-5.2 8.4-12.7 8.4-22.4s-2.8-17.2-8.4-22.4-13.2-7.9-22.8-7.9h-10.1v60.6h10.1c9.6 0 17.2-2.7 22.8-7.9zm79.8 35.7c-10.5-7.6-16.2-18.7-17.1-33.4h45.2c0.6 7.8 4.1 11.7 10.3 11.7 2.3 0 4.2-0.5 5.8-1.6s2.4-2.8 2.4-5.1c0-3.2-1.7-5.8-5.2-7.8-3.4-2-8.8-4.2-16.1-6.8-8.7-3.1-15.9-6.1-21.5-9-5.7-2.9-10.6-7.2-14.6-12.8-4.1-5.6-6.1-12.8-5.9-21.6 0-8.8 2.3-16.3 6.8-22.5s10.7-10.9 18.6-14.1 16.7-4.8 26.5-4.8c16.6 0 29.8 3.8 39.5 11.5 9.8 7.7 14.9 18.4 15.4 32.4h-45.8c-0.1-3.8-1.1-6.6-2.9-8.2-1.8-1.7-4-2.5-6.5-2.5-1.8 0-3.3 0.6-4.4 1.8s-1.7 2.9-1.7 5.1c0 3.1 1.7 5.6 5.1 7.6s8.8 4.4 16.2 7.2c8.5 3.1 15.5 6.1 21.1 9.1 5.6 2.9 10.4 7 14.5 12.3 4.1 5.2 6.1 11.8 6.1 19.7 0 8.3-2 15.7-6.1 22.3s-10 11.7-17.8 15.4-17 5.6-27.8 5.6c-16.2-0.1-29.6-3.9-40.1-11.5zm149.2-91.6v16.7h42.1v32h-42.1v19.1h47.9v33.9h-90.4v-135.6h90.4v33.9h-47.9zm170.4-33.9v33.7h-36v101.9h-42.5v-101.9h-35.6v-33.7h114.1zm-749 153.1v98.2h-30.7v-49l-15.1 49h-26.4l-15.1-49v49h-30.8v-98.2h37.7l21.6 59 21.1-59h37.7zm76.8 83.4h-32.7l-4.9 14.8h-32.3l35.9-98.2h35.5l35.8 98.2h-32.5l-4.8-14.8zm-7.5-23.2-8.9-27.3-8.9 27.3h17.8zm111.2 38-28.6-42.6v42.6h-30.8v-98.2h30.8v41.3l28.2-41.3h34.8l-33.9 47 36.1 51.2h-36.6zm76.1-73.7v12.1h30.5v23.2h-30.5v13.8h34.7v24.6h-65.5v-98.2h65.5v24.6h-34.7zm323.8-24.5-33 98.2h-39.8l-33-98.2h32.7l20.3 67.6 20.1-67.6h32.7zm37.7 24.5v12.1h30.5v23.2h-30.5v13.8h34.7v24.6h-65.5v-98.2h65.5v24.6h-34.7zm95.8 73.7-18.5-35.2h-0.1v35.2h-30.8v-98.2h45.8c8 0 14.8 1.4 20.4 4.2s9.9 6.7 12.7 11.5c2.8 4.9 4.2 10.3 4.2 16.4 0 6.6-1.8 12.4-5.5 17.5s-8.9 8.7-15.7 11l21.4 37.6h-33.9zm-18.6-55.8h12.2c3 0 5.2-0.7 6.7-2s2.2-3.4 2.2-6.3c0-2.6-0.8-4.6-2.3-6.1s-3.7-2.2-6.6-2.2h-12.2v16.6z"/>
</svg>
