<?xml version="1.0" encoding="UTF-8"?><svg id="Layer_1" xmlns="http://www.w3.org/2000/svg" viewBox="0 0 512 512"><defs><style>.cls-1{stroke-width:0px;}</style></defs><path class="cls-1" d="m386.29,428.26c-1.53-.05-2.88-.74-3.63-2.3-.77-1.6-.52-3.13.6-4.51.18-.22.38-.45.61-.61,5.85-4.07,10.57-9.44,16-13.98,2.02-1.69,4.02-3.41,6.27-4.81.63-.39,1.28-.74,2.05-.8,1.97-.15,3.39,1.52,2.94,3.44-.17.74-.57,1.36-.98,1.99-2.61,4-5.96,7.36-9.32,10.7-3.19,3.16-6.46,6.25-10.02,8.99-1.28.99-2.63,1.86-4.51,1.89Z"/><path class="cls-1" d="m382.03,419.18c-2.15-.02-3.9-1.62-4.1-3.84-.12-1.36,0-2.72.34-4.04.39-1.53,1.34-2.64,2.91-3.07.75-.21,1.31-.62,1.86-1.14,3.97-3.72,8.13-7.2,12.92-9.85,1.37-.76,2.78-1.43,4.32-1.77,1.3-.29,2.49-.08,3.31,1.07.81,1.14.66,2.34-.04,3.48-.82,1.35-1.9,2.49-3.1,3.49-2.9,2.43-5.84,4.82-8.74,7.25-2.24,1.88-4.38,3.85-5.96,6.37-.91,1.45-2.22,2.07-3.72,2.06Z"/><path class="cls-1" d="m246.02,440.72c-6.94,0-12.14.02-17.34,0-2.95-.01-5.91.48-8.85.1-3.08-.39-6.16-.33-9.25-.45-11.53-.44-23.08-.62-34.59-1.37-8.31-.54-16.65-.68-24.93-1.52-5.9-.59-11.82-.7-17.71-1.25-18.13-1.69-36.31-2-54.49-1.31-4.92.18-9.89.05-14.77.85-4.77.78-9.53,1.58-14.32,2.22-1.64.22-3.3.45-4.94.7-4.57.7-9.15,1.31-13.69,2.14-3.44.63-6.84,1.51-10.36,1.65-2.35.09-4.41-.59-6.22-2.1-1.61-1.33-2.02-4.9-.91-6.74,1.87-3.12,4.88-4.53,8.07-5.73,3.38-1.27,6.95-1.64,10.48-2.24,4.68-.79,9.39-1.39,14.08-2.13,2.37-.37,4.77-.5,7.11-.97,3.64-.73,7.31-1.27,10.97-1.87.51-.08,1.03-.13,1.54-.13,9.09-.01,18.15-.86,27.25-.87,3.59,0,7.19-.09,10.79-.09,1.28,0,2.56,0,3.84.31,1.43.35,2.9-.22,4.34-.08,7.18.7,14.41.69,21.58,1.35,7.28.67,14.6.84,21.87,1.54,9.03.87,18.08.96,27.12,1.55,23.93,1.55,47.89,1.97,71.86,1.45,2.98-.06,5.98-.35,8.97-.54,1.3-.08,2.36-.77,3.45-1.29,1.92-.92,3.99-1.24,5.99-1.75,3.18-.8,5.9-2.35,8.64-4.02,1.51-.92,3.08-1.76,4.59-2.69,1.95-1.19,3.78-2.56,5.53-4.06,1.94-1.66,3.99-3.19,6.06-4.69,2.45-1.78,4.95-3.5,7.47-5.18,1.93-1.29,3.95-2.44,5.89-3.7,2.69-1.75,5.56-3.18,8.25-4.94,1.62-1.06,3.43-1.83,5.14-2.77,2.29-1.25,4.5-2.65,6.85-3.77,1.75-.83,3.5-1.66,5.23-2.54,4.6-2.33,9.44-4.13,14.14-6.23,2.09-.94,4.29-1.64,6.42-2.47,3.08-1.2,6.14-2.44,9.08-3.96,1.77-.91,3.62-1.65,5.39-2.55,2.44-1.24,4.8-2.66,7.27-3.82,1.77-.82,3.52-1.67,5.24-2.59,3.24-1.73,6.5-3.43,9.72-5.18,2.55-1.38,5.15-2.7,7.84-3.84,2.1-.89,3.93-2.37,5.99-3.4,1.73-.86,3.37-1.88,5.03-2.88,2.16-1.3,4.28-2.66,6.42-3.98,1.4-.86,2.79-1.71,4.22-2.52,2.31-1.31,4.64-2.59,6.96-3.87,1.74-.96,3.49-1.92,5.24-2.86,2.52-1.35,5.02-2.76,7.6-4,1.57-.75,3.08-1.61,4.65-2.36,2.9-1.38,5.79-2.78,8.7-4.12,1.85-.85,3.73-1.63,5.61-2.43,3.11-1.33,6.22-2.65,9.34-3.97.27-.12.57-.18.85-.27,2.05-.65,2.24-1.4.98-3.2-2.72-3.89-5.99-7.27-9.63-10.28-1.79-1.48-3.88-2.57-6.06-3.34-4.69-1.65-9.56-2.15-14.44-1.22-3.96.75-7.65,2.3-11.06,4.59-2.38,1.6-4.26,3.74-6.53,5.44-.78.58-1.56,1.19-2.5,1.47-2.52.76-5.09,1.37-7.56,2.26-3.62,1.3-7.29,2.46-10.89,3.86-3.4,1.32-6.68,2.91-10.2,3.96-4.09,1.22-8.06,2.87-11.98,4.59-2.21.97-4.55,1.67-6.82,2.55-2.29.89-4.55,1.82-6.79,2.84-1.07.49-2.17.95-3.28,1.38-3.04,1.18-5.97,2.59-8.82,4.16-.3.16-.64.23-.96.37-.73.32-1.14.79-1.05,1.68.12,1.15.37,2.29.44,3.43.22,3.24-.28,6.39-1.64,9.37-.29.63-.37,1.33-.36,2.02.04,4.31-3.7,7.48-7.92,7.1-2.03-.18-3.99-.62-5.94-1.18-.57-.16-1.18-.19-1.77-.31-7.45-1.44-15-1.57-22.56-1.7-7.48-.13-14.96-.13-22.43.25-4.92.25-9.89-.1-14.76.89-3.96.8-7.95,1.47-11.9,2.39-2.36.55-4.76,1.05-7.14,1.55-4.21.89-8.37,2.03-12.58,2.91-3.76.79-7.48,1.75-11.26,2.5-3.34.66-6.68,1.37-10.03,2.01-5.35,1.01-10.74,1.57-16.15,2.13-11.42,1.18-22.82.57-34.22.02-5.95-.29-11.86-1.1-17.76-1.79-3.23-.38-6.51-.54-9.67-1.27-2.68-.62-5.42-.6-8.09-1.31-1.94-.51-4.03-.42-6.03-.76-4.53-.75-9.11-1.08-13.67-1.53-6.42-.64-12.86-.92-19.29-1.43-3.03-.24-6.07-.57-9.03-1.18-2.21-.45-4.35-1.28-5.31-3.78-.66-1.72-.36-3.98,1.08-5.15,1.29-1.05,2.75-1.75,4.36-2.19,8.36-2.26,16.88-2.08,25.39-1.52,4.92.33,9.84.77,14.71,1.5,3.14.47,6.32.61,9.41,1.27,3.04.64,6.14.66,9.15,1.29,3.25.69,6.58.67,9.81,1.29,4.02.78,8.11.78,12.15,1.28,10.52,1.3,21.08,1.34,31.63.86,3.75-.17,7.53-.47,11.26-1,3.97-.56,7.93-1.24,11.87-2.02,4.72-.94,9.44-1.95,14.11-3.1,2.86-.7,5.72-1.34,8.58-2.01,4.68-1.1,9.36-2.2,14.08-3.17,3.3-.68,6.65-1.22,9.9-2.04,4.71-1.2,9.49-.36,14.2-.97,7.64-.98,15.34-.56,23.01-.8,2.14-.07,4.28-.31,6.41-.11,5.99.56,12.01.46,17.99,1.17.94.11,1.79.55,2.75.6.85.05,1.05-.24,1-1.03-.09-1.39-.64-2.69-1.17-3.89-.73-1.66-1.06-3.41-1.57-5.11-.67-2.23-2.4-3.27-4.15-4.25-3.22-1.79-6.7-2.91-10.25-3.9-3.9-1.09-7.86-1.86-11.83-2.61-5.69-1.07-11.43-1.64-17.16-2.37-3.79-.48-7.6-.67-11.37-1.19-4.99-.68-10.06-.68-15-1.45-4.55-.7-9.05-.42-13.56-.46-2.04-.02-4.11.25-6.14.02-5.85-.66-11.76-.46-17.58-1.28-2.97-.42-5.97-.63-8.9-1.25-3.71-.79-7.46-1.5-11.07-2.63-3.67-1.14-7.34-2.32-10.94-3.75-2.36-.94-4.75-1.86-7.08-2.87-2.87-1.23-5.73-2.5-8.49-4-1.63-.88-3.3-1.68-4.92-2.58-3.39-1.9-6.87-3.62-10.15-5.71-2.81-1.78-5.76-3.34-8.52-5.19-2.84-1.9-5.85-3.47-8.82-5.11-.8-.45-1.68-.86-2.53-1.15-2.58-.87-5.2-1.6-7.91-2.09-3.96-.72-7.92-.81-11.91-.68-4.89.16-9.68,1.15-14.41,2.32-4.53,1.12-8.84,2.97-13,5.05-4.45,2.22-8.8,4.66-13.01,7.32-3.18,2.01-6.46,3.84-9.64,5.85-3,1.9-6.26,3.32-9.22,5.28-3.94,2.61-8.13,4.79-12.42,6.79-4.38,2.04-8.76,4.05-13.38,5.53-3.94,1.26-7.88,2.38-11.94,3.2-3.08.62-6.14,1.06-9.17.35-5.04-1.17-7.74-5.44-5.93-10.61.77-2.21,2.59-3.67,5.04-4.03.8-.12,1.64-.18,2.44-.08,3.41.45,6.59-.51,9.79-1.42,1.35-.38,2.71-.73,4.05-1.17,3.67-1.2,7.22-2.71,10.75-4.26,2.56-1.13,5.02-2.44,7.49-3.73,3.63-1.9,7.11-4.06,10.28-6.68,1.11-.92,2.37-1.59,3.83-1.93,1.84-.42,3.37-1.53,4.95-2.51,1.35-.84,2.64-1.77,4-2.6,2.87-1.75,5.72-3.55,8.68-5.14,1.71-.92,3.45-1.8,5.17-2.71,2.85-1.51,5.85-2.66,8.77-4.03,1.04-.48,2.15-.83,3.23-1.15,3.17-.96,6.35-1.91,9.58-2.68,9.06-2.14,18.19-2.35,27.34-1.22,3.69.46,7.33,1.36,10.84,2.79,2.13.87,4.22,1.8,6.27,2.81,2.46,1.21,4.7,2.86,7.17,4.03,2.46,1.16,4.69,2.66,6.9,4.16,4.14,2.8,8.64,4.97,12.89,7.57,2.56,1.56,5.33,2.78,8.07,4.05,3.21,1.48,6.45,2.88,9.74,4.14,2.78,1.06,5.61,1.98,8.45,2.89,3.49,1.13,7.11,1.73,10.61,2.8.79.24,1.66.24,2.49.38,8.23,1.38,16.55,1.72,24.88,1.91,4.07.1,8.09.64,12.15.81,3.78.16,7.56-.11,11.34.25,2.61.25,5.26.2,7.83.65,3.99.7,8.05.64,12.01,1.31,3.61.6,7.25.68,10.85,1.24,5.07.79,10.15,1.57,15.18,2.58,4.34.87,8.6,2.13,12.78,3.56,3.37,1.15,6.61,2.68,9.62,4.58,1.93,1.22,3.83,2.61,5.24,4.52.44.6,1.07,1.08,1.62,1.6.33.31.72.3,1.06.04,2.3-1.8,5.11-2.61,7.68-3.87,3.18-1.56,6.46-2.93,9.75-4.29,2.94-1.21,5.94-2.29,8.91-3.42,3.87-1.46,7.85-2.52,11.89-3.38,1.52-.32,2.83-1.35,4.08-2.29,3.17-2.4,6.71-3.96,10.4-5.4,3.64-1.42,7.34-2.56,11.06-3.69,1.31-.4,2.69-.53,4.02-.85,1.92-.46,2.99-2.13,4.49-3.21,2.57-1.86,5.16-3.66,8.06-5.02,4.34-2.04,8.83-3.55,13.59-4.1,4.54-.53,9.12-.51,13.61.39,4.71.95,9.19,2.55,13.34,5.16,4.1,2.58,7.57,5.78,10.69,9.4,1.48,1.72,2.58,3.7,3.63,5.73,1.56,3.04,2.59,6.29,3.93,9.41,1.09,2.52,1.59,5.2,1.59,7.96,0,2.4-1.15,4.1-3.19,5.26-2.64,1.5-5.55,2.3-8.35,3.41-2.86,1.14-5.69,2.34-8.5,3.61-1.97.89-3.99,1.69-5.97,2.56-2.78,1.22-5.49,2.57-8.22,3.91-1.78.87-3.58,1.71-5.34,2.62-2.51,1.3-4.94,2.77-7.49,3.98-2.45,1.16-4.73,2.6-7.13,3.84-2.85,1.47-5.54,3.24-8.31,4.86-.88.51-1.75,1.06-2.69,1.44-1.87.75-3.47,1.97-5.25,2.83-1.63.78-3.19,1.64-4.72,2.58-2.26,1.4-4.47,2.9-6.84,4.11-1.6.82-3.11,1.8-4.75,2.56-2.21,1.03-4.34,2.25-6.42,3.51-1.93,1.17-4.01,2.01-5.99,3.09-2.33,1.27-4.71,2.46-7.07,3.66-2.53,1.28-5.1,2.47-7.59,3.83-2.86,1.56-5.95,2.6-8.85,4.07-1.77.9-3.68,1.53-5.53,2.26-3.47,1.36-6.97,2.62-10.37,4.17-2.69,1.23-5.44,2.34-8.1,3.61-2.47,1.18-4.81,2.65-7.3,3.8-2.42,1.12-4.68,2.51-7,3.8-2.28,1.26-4.53,2.57-6.75,3.93-1.33.81-2.65,1.66-4,2.45-2.05,1.21-3.98,2.64-6.02,3.88-2.6,1.57-4.96,3.49-7.48,5.17-1.78,1.18-3.44,2.57-5.27,3.67-3.2,1.94-5.93,4.54-9.25,6.34-2.18,1.18-4.24,2.64-6.41,3.85-1.58.88-3.27,1.58-4.85,2.49-4.06,2.35-8.54,2.8-13.11,3.28-7.02.73-14.06.54-19.35.74Z"/><path class="cls-1" d="m330.03,248.37c-.14,15.42-.1,27.41-.65,39.39-.12,2.5-.64,4.81-2.32,6.74-1.71,1.97-4.99,3.11-7.63,1.98-3.73-1.6-5.08-4.49-4.89-8.37.58-12.15.85-24.32.56-36.47-.36-14.98.27-29.97-.3-44.94-.16-4.32-.54-8.65-1.08-12.94-.43-3.38-1.09-6.74-1.95-10.04-1.33-5.07-3.23-9.95-6.43-14.17-2.24-2.95-5-5.38-8.06-7.53-2.13-1.5-4.37-2.78-6.72-3.81-1.78-.78-3.74-1.27-5.69-1.4-2.08-.13-4.18-.32-6.27.11-1.63.34-3.21-.46-4.83-.38-5,.23-10.04.26-14.98,1.09-4.48.75-8.89,1.88-13.19,3.45-3.05,1.11-6.01,2.41-8.85,3.92-3.03,1.61-5.84,3.62-8.48,5.87-2.86,2.44-5.41,5.18-7.73,8.11-1.88,2.37-3.49,4.94-5.02,7.57-1.73,2.99-3.04,6.15-4.26,9.35-.46,1.22-.8,2.51-1.11,3.78-1.73,7.12-1.92,14.37-1.36,21.62.38,4.83.46,9.67.76,14.5.73,11.58.15,23.18.7,34.76.16,3.38.14,6.76.22,10.14.05,2.04-2.1,4.99-4.01,5.93-5.05,2.5-10.74-1.83-10.42-7.3.22-3.83.15-7.66-.13-11.46-.56-7.71-.29-15.45-.81-23.14-.47-6.9-.28-13.81-.74-20.69-.27-4.11-.39-8.22-.46-12.33-.05-3.23-.01-6.47.59-9.63.72-3.75,1.51-7.5,2.79-11.14,1.14-3.25,2.45-6.42,4.02-9.47,1.17-2.27,2.52-4.46,3.94-6.61,1.83-2.78,3.8-5.44,5.96-7.96,2.72-3.17,5.65-6.14,8.95-8.7,3.05-2.37,6.26-4.52,9.69-6.35,3.11-1.66,6.3-3.07,9.59-4.3,3.35-1.25,6.73-2.29,10.21-3.14,4.5-1.11,9.04-1.74,13.65-2.18,8.41-.81,16.81-.83,25.18.06,3.9.41,7.59,1.92,11.12,3.79,2.32,1.23,4.56,2.56,6.73,4.03,2.63,1.77,4.94,3.91,7.17,6.14,2.33,2.33,4.29,4.98,6.1,7.71,1.04,1.57,1.85,3.31,2.69,5.01,1.87,3.79,3.08,7.81,4.16,11.88.45,1.69.8,3.42,1.07,5.14.58,3.68,1.08,7.37,1.51,11.07.52,4.45.42,8.91.79,13.34,1.18,13.81.21,27.62.24,37.99Z"/><path class="cls-1" d="m218.31,91.66c-.23-3.39.48-7.28,1.37-11.12,1.07-4.61,2.66-9.09,4.9-13.25,2.15-4,4.69-7.8,7.8-11.12,2.87-3.07,6.07-5.78,9.63-8.07,3.3-2.11,6.77-3.84,10.5-4.96,2.4-.72,4.88-1.23,7.44-1.29,3.05-.06,6.09-.28,9.14-.39,1.33-.05,2.61-.46,3.96-.4,5.04.24,10.01,1.01,14.78,2.58,3.68,1.21,7.15,3.06,10.22,5.47,2.28,1.79,4.35,3.82,6.18,6.14,3.06,3.9,5.14,8.21,6.55,12.92.41,1.37.76,2.73.86,4.13.12,1.75.71,3.44.59,5.22-.31,4.67-.93,9.29-2.59,13.68-1.67,4.43-3.95,8.58-6.64,12.47-1.82,2.63-3.74,5.21-5.87,7.58-1.56,1.73-3.18,3.43-4.87,5.06-2.06,1.98-4.21,3.86-6.39,5.69-2.23,1.88-4.68,3.45-7.09,5.08-2.42,1.63-5.12,2.76-7.72,4.06-.9.45-1.9.78-2.85,1.07-2.45.74-4.89,1.58-7.5,1.63-1.04.02-1.98.46-3.03.49-3.51.08-6.96-.45-10.29-1.32-4.14-1.08-8-3.03-11.45-5.57-4.69-3.45-8.64-7.64-11.58-12.7-1.92-3.3-3.44-6.76-4.44-10.49-1.06-3.95-1.69-7.93-1.61-12.61Zm52.52-35.11c-3.77-.14-7.55-.09-11.25.72-2.56.56-5.15.9-7.53,2.2-3.78,2.07-6.98,4.82-9.75,8.04-2.3,2.68-4.13,5.73-5.59,8.95-1.9,4.18-2.98,8.64-3.47,13.19-.43,3.98.15,7.89,1.37,11.74,1.34,4.24,3.66,7.8,6.72,11,2.75,2.88,5.96,5.02,9.69,6.16,4.85,1.48,9.72.77,14.33-1.14,2.33-.96,4.51-2.29,6.65-3.68,2.79-1.81,5.35-3.9,7.83-6.1,2.23-1.97,4.3-4.12,6.25-6.37,1.79-2.06,3.5-4.19,4.96-6.5,1.01-1.6,1.95-3.25,2.84-4.93,1.35-2.54,2.42-5.16,2.9-7.96.63-3.65.57-7.28-.68-10.9-1.09-3.18-2.76-6-5.06-8.26-3.69-3.61-8.26-5.75-13.49-6.13-2.22-.16-4.46-.03-6.7-.03Z"/><path class="cls-1" d="m158.28,158.85c-3.08.23-6.57-.44-9.87-1.56-5.5-1.87-9.73-5.31-11.97-10.93-1.87-4.69-1.98-9.53-1.44-14.39.21-1.88.51-3.81.99-5.68,1-3.91,2.39-7.7,4.8-10.94,1.95-2.62,4.53-4.64,7.56-6.06,3-1.41,6.18-2.24,9.32-3.26,6.68-2.16,13.48-2.39,20.35-1.58,3.63.43,6.89,1.84,9.8,4.16,3.58,2.87,5.61,6.54,6.71,10.94.75,2.99.84,5.97.38,8.91-.66,4.21-1.86,8.27-4.06,12.06-2.72,4.68-6.29,8.51-10.64,11.61-2.08,1.48-4.37,2.7-6.77,3.67-4.7,1.9-9.55,3.08-15.14,3.05Zm-11.81-23.11c-.03,2.06.04,3.65.34,5.21.22,1.15.76,2.26,1.48,3.04,2.05,2.22,4.92,2.91,7.77,3.2,1.5.15,3.08.06,4.64-.1,2.53-.27,4.97-.75,7.35-1.6,1.08-.39,2.19-.76,3.15-1.36,2.31-1.42,4.54-2.96,6.37-5.02,1.69-1.9,3.16-3.89,4.16-6.25.67-1.58,1-3.24,1.51-4.85.86-2.77.01-5.33-.64-7.89-.19-.74-.81-1.53-1.52-2.13-1.92-1.62-4.14-2.3-6.59-2.35-2.8-.05-5.57-.18-8.4.3-4.16.7-8.18,1.57-12,3.45-3.08,1.51-4.75,4.15-6.01,7.06-1.32,3.08-1.66,6.41-1.62,9.28Z"/><path class="cls-1" d="m358.41,172.32c3.49-.18,7.27.51,10.92,1.54,4.27,1.2,8.21,3.2,11.75,6.03,2.91,2.33,5.39,4.93,7.5,8,2.39,3.48,4.24,7.15,5.47,11.19.86,2.81,1.51,5.65,2.13,8.52.66,3.09.58,6.22.99,9.31.41,3.09.41,6.18.14,9.23-.46,5.21-.59,10.46-1.33,15.64-.45,3.18-.65,6.39-1.21,9.55-.82,4.62-1.56,9.27-2.61,13.84-.79,3.42-1.65,6.85-3.04,10.1-1.24,2.91-4.2,3.81-6.47,1.64-.75-.72-1.14-1.81-1.21-2.9-.22-3.35-.22-6.74.32-10.03.58-3.48.59-7,1.13-10.47.62-3.98.85-8.01,1.4-12,1.37-9.94,1.95-19.91.92-29.9-.41-4.01-1.45-7.97-3.04-11.7-1.92-4.51-4.68-8.47-8.67-11.39-1.76-1.29-3.75-2.26-5.85-3.06-1.9-.72-3.92-.79-5.8-1.48-.87-.32-1.76.14-2.67.1-2.88-.13-5.77.03-8.6.6-2.41.49-4.74,1.37-7.15,1.9-1.92.42-3.82.3-5.45-1.07-2.48-2.09-2.71-5.35-.59-7.89,1.49-1.79,3.61-2.41,5.63-2.97,4.9-1.36,9.89-2.44,15.4-2.34Z"/><path class="cls-1" d="m335.3,126.17c-.24-3.8.69-7.45,1.71-11.01,1.17-4.05,2.95-7.93,5.63-11.24,2.2-2.72,4.91-4.84,8.22-6.23,2.89-1.22,5.7-2.61,8.72-3.47.37-.1.76-.15,1.14-.21,1.86-.29,3.71-.8,5.57-.82,3.91-.04,7.76.59,11.34,2.24,3.9,1.79,7.22,4.37,9.36,8.13,1.43,2.52,2.26,5.29,2.41,8.26.3,6.23-1.39,11.9-4.41,17.31-1.11,1.99-2.35,3.86-3.7,5.67-1.74,2.34-3.81,4.36-5.99,6.28-2.38,2.09-5.07,3.75-7.9,5.12-5.4,2.61-11.12,3.37-16.98,2.02-3.1-.72-5.95-2.24-8.25-4.44-2.28-2.18-4.1-4.72-5.17-7.81-.62-1.79-.96-3.62-1.42-5.42-.35-1.39-.2-2.9-.28-4.36Zm29.62-21.34c-2.95-.29-5.89,1.09-8.74,2.56-1.36.7-2.74,1.52-3.84,2.69-2.03,2.14-3.35,4.79-4.07,7.49-.92,3.43-1.91,6.99-1.37,10.63.29,1.99.68,4.04,1.96,5.71,1.99,2.61,4.67,3.71,7.92,3.37,3.17-.33,6.07-1.51,8.68-3.27,2.22-1.5,4.27-3.22,5.93-5.37,1.32-1.71,2.58-3.42,3.62-5.33,1.73-3.19,2.92-6.49,2.95-10.15.03-3.31-1.8-5.41-4.52-6.89-2.52-1.37-5.26-1.67-8.49-1.43Z"/><path class="cls-1" d="m133.77,230.53c-.16-2.04-.19-4.87,0-7.6.29-4.44.41-8.92,1.2-13.31.47-2.58.66-5.21,1.31-7.74.93-3.62,1.75-7.28,3.18-10.76,1.44-3.53,3.22-6.91,5.83-9.7,2.42-2.58,5.31-4.6,8.66-5.93,2.71-1.08,5.48-1.76,8.34-2.33,4.24-.84,8.46-.85,12.64-.11,2.55.45,5.06,1.32,6.61,3.85,1.83,3.01.36,7.83-3.62,8.29-1.85.22-3.6-.23-5.33-.7-2.5-.68-4.96-.61-7.45-.06-.5.11-1.02.16-1.53.23-3.62.47-6.87,1.79-9.51,4.37-1.48,1.45-2.62,3.21-3.38,5.11-1.31,3.28-2.27,6.66-3.03,10.13-.57,2.61-.79,5.23-1.23,7.84-1.75,10.32-1.22,20.7-.9,31.08.05,1.57.38,3.13.41,4.72.03,1.73-.26,3.41-.61,5.08-.34,1.6-1.24,2.69-2.87,3.01-1.68.34-3.14-.38-4.12-1.93-.86-1.36-1.48-2.86-1.93-4.37-.59-1.99-1.09-4.02-1.51-6.07-.84-4.1-1.06-8.23-1.16-13.11Z"/><path class="cls-1" d="m99.86,439.11c7.17.16,14.34.32,21.51.48.56.01,1.12.03,1.64.28.78.38,1.17.98,1.09,1.86-.08.82-.56,1.32-1.33,1.56-.67.21-1.36.17-2.05.15-9.4-.2-18.8-.5-28.21-.43-15.57.12-30.9,2.07-46.02,5.79-1.83.45-3.7.73-5.56,1.04-.54.09-1.12.12-1.66.05-.58-.07-1.05-.4-1.14-1.06-.09-.61.13-1.11.67-1.42.9-.52,1.89-.81,2.88-1.09,13.71-3.99,27.7-6.25,41.96-6.89,5.41-.24,10.82-.3,16.23-.33Z"/><path class="cls-1" d="m307.8,245.17c-.23,9.28-1.23,18.51-1.87,27.76-.26,3.81-.5,7.63-.19,11.45.07.85.09,1.72.09,2.57,0,.9-.16,1.81-1.23,1.98-1.02.17-1.55-.56-1.9-1.41-.83-1.99-.93-4.09-.95-6.2-.05-6.32.63-12.61,1.12-18.9.6-7.58,1.19-15.16,1.11-22.77-.02-1.59-.14-3.17-.19-4.76-.02-.65-.11-1.25-.55-1.79-.45-.56-.51-1.28-.39-1.97.17-1,.63-1.8,1.74-1.97,1.14-.17,1.91.37,2.34,1.39.52,1.25.6,2.58.71,3.91.29,3.56.26,7.12.17,10.69Z"/><path class="cls-1" d="m33.73,62.47c1.75-.72,3.31-1.41,4.91-1.99,1.79-.65,3.63-1.01,5.55-.67,2.87.52,4.53,2.78,4.15,5.68-.15,1.17-.55,2.26-1.18,3.24-2,3.09-4.86,4.96-8.47,5.53-4.93.77-8.64-2.43-9.01-7.7-.36-5.16.97-9.94,3.49-14.42.21-.37.46-.73.74-1.05,1.06-1.24,2.54-1.45,3.47-.5.88.89.85,3.01-.32,3.68-1.42.82-1.76,2.14-2.23,3.43-.54,1.48-1,3-1.12,4.79Zm4.03,8.02c2.15-.16,4.2-1.29,5.76-3.27.68-.87,1.47-1.97.82-3.04-.66-1.08-1.99-.77-3.07-.58-2.46.42-4.74,1.47-7.11,2.2-.43.13-.62.34-.61.82.04,2.17,1.71,3.89,4.21,3.88Z"/><path class="cls-1" d="m150.36,291.23c-.03,1.44-1.63,2.41-2.75,1.5-2.22-1.81-4.92-1.93-7.51-2.31-10.88-1.61-21.09.4-30.61,5.92-1.67.97-3.33,1.97-5.21,2.5-.58.16-1.16.34-1.77.17-1.06-.29-1.44-1.3-.82-2.22.39-.58.97-.96,1.56-1.32,7.46-4.58,15.27-8.2,24.12-9.13,6.43-.67,12.77-.2,19.02,1.42,1.34.35,2.62.86,3.49,2.03.32.42.51.9.48,1.44Z"/><path class="cls-1" d="m415.56,38.12c.08-.72.14-1.45.26-2.17.12-.7.36-1.31-.12-2.06-.46-.72,0-1.49.79-1.73.94-.28,1.48-.94,2.08-1.61,2.19-2.44,4.89-3.23,8.05-2.37,1.11.3,1.99.93,1.83,2.26-.06.49.17.59.51.71.33.11.65.22.97.35,4.29,1.79,5.7,6.42,3,10.21-2.23,3.13-5.34,4.81-9.21,4.84-4.81.03-8.1-3.44-8.16-8.43Zm8.37-3.73c-.34,0-.69-.02-1.03,0-2.8.17-3.4.8-3.44,3.66,0,.17,0,.34.01.52.14,2.57,1.75,4.19,4.3,4.15,2.52-.05,4.56-1.17,6.02-3.22,1.25-1.76.67-3.57-1.32-4.4-1.45-.61-2.99-.76-4.55-.7Z"/><path class="cls-1" d="m41.49,212.92c0-.17,0-.35.03-.51.22-1.03.01-1.48-1.13-.95-.82.38-1.74.54-2.25-.46-.52-1.02.23-1.61.98-2.07,4.27-2.61,8.67-4.92,13.71-5.62,1.72-.24,3.43-.24,5.1.3,3.02.97,4.35,3.61,2.86,6.39-2.66,4.96-6.87,8.15-12.41,9.16-4.35.79-6.99-1.8-6.9-6.23Zm13.2-5.89c-2.57.07-4.97.83-7.36,1.68-.46.16-.71.36-.52.94.28.88-.04,1.6-.81,2.1-1.11.72-.66,1.76-.48,2.67.17.85.94,1.04,1.72,1.03.87-.01,1.7-.23,2.49-.57,2.54-1.07,4.71-2.65,6.48-4.75.59-.7,1.54-1.53,1.09-2.42-.44-.88-1.67-.61-2.61-.68Z"/><path class="cls-1" d="m148.82,223.77c0-3.05-.04-6.09.02-9.14.02-1.33.24-2.66.97-3.83.58-.93,1.4-1.48,2.49-.99,1.07.48,1.33,1.43.93,2.49-.49,1.31-.59,2.67-.63,4.05-.24,8.68-.23,17.34,1.37,25.92.55,2.95,1.13,5.89,1.68,8.85.09.5.13,1.03.09,1.53-.04.55-.34.97-.91,1.12-.59.15-1.16.03-1.48-.5-.37-.62-.69-1.28-.94-1.96-2.24-6.1-3.03-12.48-3.52-18.91-.22-2.87-.3-5.74-.06-8.62Z"/><path class="cls-1" d="m157.33,37.89c.55.03.85-.39,1.23-.63,2.68-1.64,5.47-2.87,8.71-2.72,2.29.1,4,1.02,4.4,2.52.53,2.04-.61,3.41-2.11,4.46-3.44,2.4-7.24,4-11.47,3.06-1.78-.39-2.88-.13-4.02,1.07-.41.43-.93.76-1.41,1.12-.61.45-1.28.6-1.88.05-.68-.61-.5-1.34-.03-1.97.67-.89,1.36-1.78,2.14-2.57.58-.59.72-1.11.51-1.92-.53-2.02-.09-3.93,1.02-5.66.57-.89,1.37-1.52,2.49-1,1.08.5.96,1.49.79,2.46-.11.58-.49,1.1-.35,1.74Zm9.53.67c-2.54-.23-4.56.96-6.53,2.28,2.43-.04,4.59-.84,6.53-2.28Z"/><path class="cls-1" d="m435.67,183.1c-2.17-.04-3.77-.91-5.02-2.47-.56-.7-.86-1.58-1.64-2.12-.15-.1-.26-.38-.24-.57.23-3.26-.15-6.61,1.44-9.67.44-.84.89-1.67,1.57-2.34,1.83-1.8,5.64-.72,6.3,1.78.18.67.07,1.3-.48,1.76-.7.59-1.58.71-2.28.21-1.29-.95-1.56-.08-1.9.87-.4,1.14-.6,2.32-.74,3.52-.09.83.23.94.93.72,1.48-.47,2.98-.82,4.55-.64,1.62.19,3.02.76,3.61,2.45.57,1.64,0,3.05-1.1,4.26-1.38,1.5-3.14,2.18-5.02,2.26Zm2.27-5.11c-1.49-.11-2.69.03-3.96.51,1.42,1.05,2.6.92,3.96-.51Z"/><path class="cls-1" d="m463.56,312.85c-.09,1.23-.99,1.71-1.97,2.12-6.29,2.65-12.41,5.66-18.37,8.98-2.32,1.29-4.63,2.61-6.96,3.9-.64.35-1.29.67-2.04.74-.6.06-1.14-.06-1.44-.62-.28-.53-.25-1.08.11-1.58.51-.71,1.17-1.25,1.88-1.74,5.37-3.74,11.22-6.62,17.08-9.49,2.69-1.32,5.46-2.49,8.21-3.7.46-.21.97-.38,1.47-.43,1.14-.11,2.04.74,2.04,1.83Z"/><path class="cls-1" d="m460.56,435.33c-2.02-.13-3.86-1.07-4.84-3.25-.95-2.11-.4-4.02,1.05-5.73.22-.26.47-.51.74-.71.72-.52,1.82-.87,2.11-1.56.28-.66-.81-1.39-1.07-2.2-.19-.61-.19-1.21.39-1.63.56-.4,1.18-.34,1.68.07.83.68,1.64,1.39,2.36,2.18.46.5.9.68,1.57.59,1.46-.19,2.92-.15,4.34.28,1.29.4,1.95,1.39,1.68,2.49-.25,1.05-1.23,1.58-2.53,1.47-.66-.06-1.46-.71-1.92-.15-.28.33.12,1.2.18,1.83.32,3.46-2.12,6.31-5.72,6.32Zm1.87-5.88c-.07-.64.03-1.51-.51-1.78-.55-.27-1.17.36-1.7.72-.28.19-.53.45-.72.72-.7,1.01-.21,2.1,1.01,2.3,1.18.19,1.94-.59,1.92-1.96Z"/><path class="cls-1" d="m376.21,211.96c.37-6.51-2.21-11.85-6.61-16.44-1.08-1.13-2.37-1.93-3.98-2.22-1.42-.26-2.09-1.2-1.86-2.31.21-1.04,1.15-1.6,2.51-1.44,1.3.15,2.49.63,3.6,1.31,6.78,4.18,11.64,15.53,9.98,23.3-.14.68-.32,1.34-.66,1.94-.4.72-.96,1.27-1.86,1.04-.84-.22-1.09-.93-1.11-1.69-.04-1.16,0-2.32,0-3.48Z"/><path class="cls-1" d="m200.65,125.03c.03,1.78-.34,4.44-1.35,6.99-.38.97-.88,1.87-1.55,2.66-.64.75-1.39,1.42-2.43.85-1.03-.57-.73-1.54-.48-2.41.2-.7.49-1.37.73-2.06,2.36-6.89,1.09-13.54-1.4-20.09-.16-.42-.44-.69-.87-.87-1.01-.43-1.33-1.28-1.2-2.32.11-.92.56-1.65,1.46-1.96,1.01-.35,1.88.01,2.51.83,1.87,2.44,2.75,5.32,3.46,8.24.74,3.01,1.09,6.08,1.14,10.14Z"/><path class="cls-1" d="m356.57,470.93c-.02-1.97,1.28-3.62,3.14-3.98,2.03-.4,3.74.55,4.49,2.52.32.85.49,1.73.35,2.64-.27,1.74-1.6,2.57-3.28,2.05-.36-.11-.67-.33-1.1-.26-2.44.45-3.58-.5-3.6-2.97Z"/><path class="cls-1" d="m156.52,477.7c.02-1.09.2-1.79.53-2.45.66-1.32,1.73-1.78,3.06-1.33,2.05.71,2.53,1.37,2.12,3.12-.15.62-.08,1.18.06,1.76.1.41.22.83.26,1.25.07.72-.08,1.38-.81,1.73-.73.35-1.38.06-1.85-.47-.55-.63-1.16-1.02-1.95-1.32-1.15-.43-1.42-1.5-1.41-2.29Z"/><path class="cls-1" d="m73.49,309.47c1.42.02,2.33.83,2.29,2.03-.05,1.37-1.64,2.93-2.94,2.88-1.14-.04-1.96-.92-1.95-2.1.02-1.81.96-2.83,2.6-2.81Z"/><path class="cls-1" d="m187.43,101.29c1.09.01,1.85.79,1.85,1.89,0,1.33-1.27,2.43-2.82,2.45-1.26.02-2.31-1.03-2.28-2.3.03-1.41,1.07-2.07,3.25-2.04Z"/><path class="cls-1" d="m59.03,318.67c0,1-1.99,2.55-3.19,2.51-1.06-.04-1.93-.95-1.92-2.03,0-1.3,1.44-2.55,2.91-2.54,1.2,0,2.21.96,2.2,2.06Z"/><path class="cls-1" d="m88.79,306.33c-1.12.02-2.39-1.39-2.44-2.72-.04-1.13.98-2.09,2.27-2.13,1.26-.03,2.28,1.03,2.31,2.41.03,1.26-.99,2.42-2.15,2.44Z"/><path class="cls-1" d="m234.86,92.45c-.01-5.16,1.4-9.92,3.99-14.35.41-.7.84-1.4,1.6-1.81.97-.52,2.22-.31,2.78.53.66.99.43,1.86-.45,2.61-.23.19-.47.4-.61.65-3.35,5.9-4.55,12.11-2.46,18.7,1,3.16,3.02,5.65,5.7,7.6.63.45,1.25.9,1.87,1.37.67.51,1.11,1.15.69,1.99-.44.88-1.27.78-2.04.56-2.07-.57-3.89-1.6-5.4-3.13-4.05-4.07-5.69-9.09-5.67-14.73Z"/><path class="cls-1" d="m374.92,119.18c-.08,2.72-1.48,6.2-4.74,8.78-2.01,1.59-4.35,2.19-6.89,1.88-.75-.09-1.48-.33-1.58-1.24-.1-.95.53-1.39,1.32-1.66.45-.15.9-.28,1.36-.39,7.04-1.68,8.23-9.79,4.96-14.36-.42-.59-.93-1.15-1.02-1.91-.11-.95.22-1.73,1.09-2.14.82-.39,1.63-.22,2.19.53,2.06,2.7,3.34,5.69,3.3,10.51Z"/></svg>