<?xml version="1.0" encoding="UTF-8"?><svg id="Layer_1" xmlns="http://www.w3.org/2000/svg" viewBox="0 0 512 512"><defs><style>.cls-1{stroke-width:0px;}</style></defs><path class="cls-1" d="m98.1,52.61c.26-.17.41-.24.52-.35,1.62-1.44,3.47-1.88,5.51-1.1,2.13.82,3.19,2.51,3.51,4.71.12.81-.11,1.84.32,2.39.46.59,1.42-.14,2.19-.14,2.95,0,5.24,2.16,5.47,5.43.21,2.96.29,5.93.4,8.89.15,4.2.41,8.39,1.15,12.55.41,2.32.15,4.54-1.65,6.3-.34.33-.36.61-.02.93.18.17.35.35.52.53,10.45,10.48,20.9,20.94,31.33,31.45.8.8,1.28.91,2.19.12,12.3-10.68,25.86-19.49,40.5-26.59,6.91-3.35,14.34-5.35,21.74-7.35,6.25-1.69,12.67-2.48,19.01-3.71,4.68-.91,9.35-1.91,14.05-2.73,5.6-.98,11.24-1.63,16.88-2.33,10.36-1.28,20.76-1.8,31.2-1.69,31.82.36,61.4,8.84,88.56,25.3,35.32,21.4,60.62,51.39,75.46,90,10.64,27.69,11.58,55.99,4.25,84.56-11.99,46.73-38.25,83.47-78.3,110.3-28.41,19.03-59.75,30.18-93.65,34.16-27.25,3.2-54.39,2.42-81.33-2.99-28.87-5.81-54.69-17.98-76.92-37.44-28.47-24.93-44.38-56.38-48.02-93.95-4.12-42.56,5.7-82,27.56-118.57,8.17-13.67,17.73-26.3,28.99-37.6.76-.76.64-1.17-.05-1.86-10.58-10.57-21.15-21.17-31.69-31.78-.65-.65-1.19-.74-2.06-.48-2.94.9-6.02.91-9.06,1.13-6.25.45-12.5.81-18.75,1.21-1.07.07-2.14.11-3.2-.09-3.74-.69-5.64-4.21-4.05-7.67.45-.99.05-1-.71-.99-2.02.03-4.05.13-6.05-.01-3.49-.24-5.96-3.24-5.15-6.43.38-1.49.09-1.97-1.25-2.54-2.16-.92-3.25-3.21-2.96-5.49.28-2.23,1.97-4.06,4.26-4.61.73-.17,1.47-.22,2.21-.17,8.19.54,16.39.44,24.59.32,2.67-.04,2.66-.05,2.41-2.71-.72-7.64-.8-15.31-1.06-22.97-.08-2.49,1.47-4.44,3.84-5.1,2.33-.65,4.82.34,6.1,2.42.69,1.12.92,2.36.99,3.66.05.98-.05,1.97.25,3.1Zm159.84,362.45c11.43.03,22.82-.71,34.14-2.28,32.16-4.47,61.73-15.67,88.32-34.37,36.48-25.64,60.11-60.17,70.63-103.51,6.2-25.54,5.1-50.79-4.28-75.48-11.71-30.84-30.84-56.18-57.4-75.66-33.01-24.22-69.95-35.56-111-32.13-11.4.95-22.78,2.26-34.1,3.93-4.51.67-9.02,1.38-13.52,2.09-4.94.78-9.79,2.2-14.64,3.5-10.9,2.92-21.09,7.66-31.27,12.37-10.15,4.69-18.95,11.44-27.5,18.53-.94.78-.96,1.21-.09,2.07,9.78,9.75,19.52,19.53,29.27,29.31q1.18,1.18,2.34.01c10.28-10.28,21.51-19.32,34.15-26.55,5.47-3.13,11.24-5.16,17.46-6.23,7.39-1.27,14.72-2.53,22.29-2.51,16.95.05,33.51,2.46,49.69,7.44,25.36,7.81,44.96,22.95,58.42,45.94,8.02,13.69,14.33,28.11,18.99,43.25,2.53,8.22,4.26,16.61,4.69,25.22,1.02,20.87-4.11,40.29-14.07,58.5-10.93,19.99-27.18,34.38-47.52,44.27-20.6,10.01-42.43,15.79-65.14,18.28-15.07,1.66-30.1,1.24-44.79-2.77-38.36-10.48-63.51-34.43-73.63-73.28-4.19-16.07-4.26-32.39-1.67-48.72,4.27-26.92,14.32-51.33,31.77-72.48.64-.78.61-1.21-.1-1.92-10.03-10.02-20.03-20.06-30.05-30.1-1.22-1.23-1.23-1.23-2.44.01-14.58,14.89-26.24,31.84-35.33,50.55-15.79,32.52-21.84,66.72-16.94,102.63,3.85,28.25,15.64,52.76,35.71,73.12,18.8,19.06,41.23,32,66.94,39.27,19.82,5.6,40.11,7.63,60.64,7.71Zm-100.95-148.14c.04,7.22.69,14.35,2.15,21.4,4.89,23.46,16.59,42.51,36.64,56.02,16.44,11.08,34.77,16.38,54.48,16.45,28.27.11,55.08-6.54,80.29-19.2,22.49-11.3,38.09-28.98,46.83-52.63,6.84-18.52,8.5-37.36,3.2-56.56-4.69-16.99-11.57-33.04-20.91-48-6.88-11.02-15.56-20.32-26.59-27.33-8.98-5.71-18.71-9.69-28.96-12.46-16.39-4.41-33.15-5.91-50.04-6.32-1.15-.03-2.31.09-3.45.24-6.98.98-13.5,3.37-19.71,6.63-12.93,6.79-24.1,15.91-34.43,26.14-.92.91-.82,1.38.04,2.24,9.89,9.86,19.75,19.77,29.61,29.66.2.2.42.4.61.61.34.37.68.36,1.1.11,2.23-1.31,4.68-2.21,6.77-3.8,1.47-1.13,3.2-1.87,4.85-2.7,8.2-4.12,16.82-7.15,25.57-9.85,17.64-5.46,34.92-4.5,51.7,3.24,10.85,5,18.57,12.95,22.02,24.64,1.52,5.15,2.05,10.42,1.93,15.77-.32,14.61-4.18,28.35-10.81,41.27-11.84,23.05-30.04,38.68-55.13,45.72-16.92,4.75-33.32,3.21-48.76-5.6-8.77-5.01-16.02-11.69-21.4-20.3-6.99-11.18-8.28-23.36-6.07-36.08,2.31-13.27,7.44-25.42,14.85-36.62.34-.52.89-.93.1-1.64-4.64-4.21-8.9-8.82-13.37-13.2-3.38-3.31-6.66-6.75-10.36-9.72-.83-.67-1-1.73-.46-2.54.53-.8,1.59-1.06,2.52-.55.46.25.88.61,1.27.97,7.74,7.12,15.16,14.55,22,22.55.7.82,1.08.72,1.64-.02.64-.86,1.25-1.74,1.98-2.53.64-.69.49-1.13-.13-1.73-2.3-2.24-4.55-4.54-6.82-6.82-7.57-7.59-15.14-15.16-22.68-22.78-.8-.81-1.29-.83-1.87.12-.17.28-.41.51-.62.77-19.48,24.79-28.57,53.22-29.61,84.45Zm172.74-35.64c0-.7,0-1.4,0-2.1,0-.58-.03-1.15-.05-1.73-.52-12.83-6.58-21.92-18.37-27.09-11.25-4.93-22.92-6.43-35.05-4.26-6,1.07-11.62,3.27-17.29,5.4-7.01,2.63-13.62,6.05-20.27,9.42-.73.37-1.42.83-2.15,1.22-.67.36-.77.7-.17,1.29,6.91,6.9,13.8,13.82,20.7,20.74.29.29.59.67,1.05.47,2.16-.93,4.52-.84,6.76-1.42,6.97-1.79,13.42-.61,19.08,3.98,3.16,2.56,4.94,5.93,5.3,9.99.6,6.69-1.89,12.14-7.04,16.3-5.83,4.71-12.57,7.59-19.99,8.56-13.37,1.75-19.27-9.13-17.2-18.81.73-3.43,2.18-6.57,4.09-9.48.63-.97.49-1.51-.29-2.28-5.33-5.28-10.61-10.6-15.91-15.91-1.51-1.52-3.03-3.03-4.54-4.55-.37-.38-.71-.72-1.2-.13-2.27,2.77-4.88,5.32-6.76,8.33-5.78,9.26-9.51,19.34-11.25,30.14-2.42,15.02,2.19,27.5,13.63,37.43,14.06,12.21,30.3,15.7,48.15,11.03,21.08-5.51,36.75-18.26,47.43-37.11,6.91-12.2,10.81-25.34,11.35-39.42Z"/><path class="cls-1" d="m77.79,420.4c2.26-.02,4.43.35,6.47,1.34,5.16,2.51,6.43,8.29,2.81,12.72-.63.77-1.34,1.45-2.14,2.04-2.36,1.74-5.13,2.72-7.85,3.48-4.89,1.36-10.84-2.22-12.43-7.05-1.23-3.72.16-7.52,3.66-9.89,2.86-1.94,6.08-2.64,9.49-2.65Zm.03,8.52c-1.39.02-2.68.2-3.9.76-.36.16-.87.27-.86.77,0,.46.46.65.81.84,1.56.84,2.96.21,4.3-.55.64-.36,1.78-.61,1.61-1.4-.13-.56-1.3-.35-1.96-.42Z"/><path class="cls-1" d="m439.63,38.89c7.65.04,12.19,6.53,9.44,12.81-2.72,6.2-7.79,9.6-14.48,10.54-1.29.18-2.49-.15-3.21-1.36-.69-1.16-.51-2.3.28-3.34.36-.48.16-.8-.09-1.21-2.74-4.58-1.94-10.85,1.85-14.57,1.94-1.9,4.29-2.85,6.22-2.87Zm1.58,9.39c.02-.6-.36-.77-.86-.77-.87-.01-1.74,1.12-1.84,2.28-.06.64.26.78.78.78.67-.01,1.9-1.47,1.92-2.29Z"/><path class="cls-1" d="m321.7,71.01c1.61.67,3.75.83,5.85,1.2,10.06,1.8,19.73,4.92,29.16,8.79,13.61,5.59,27,11.66,39.87,18.83,2.73,1.52,5.37,3.22,7.86,5.13.33.25.65.51.93.81.44.47.52,1.05.18,1.6-.35.56-.91.69-1.52.47-1.36-.49-2.61-1.21-3.87-1.92-14.59-8.23-29.73-15.32-45.23-21.64-9.94-4.05-20.14-7.29-30.81-8.86-1.02-.15-2.04-.27-3.07-.37-1.7-.17-2.63-.89-2.6-2.07.04-1.22,1.05-1.93,3.24-1.96Z"/><path class="cls-1" d="m177.55,54.9c-.02-5.82,3.34-9.98,8.34-10.66,6.43-.88,12.42,4.86,11.81,11.32-.37,3.9-3.45,7.09-7.6,7.86-1.58.29-3.17.4-4.75.7-2.42.45-5.38-1.42-6.39-3.72-.82-1.87-1.49-3.76-1.41-5.5Zm8.51-.34c.14.51-.11,1.25.83,1.21,1.06-.04,2.21-.76,2.19-1.41-.02-.69-1.03-1.6-1.81-1.58-1.19.04-1.08,1-1.22,1.77Z"/><path class="cls-1" d="m58.27,172.95c-.13,2.88-1.68,4.9-3.92,6.52-.91.65-1.9,1.16-2.95,1.54-.61.22-.65.5-.26.98.55.67,1.01,1.4,1.25,2.25.63,2.24-.72,4.31-3.04,4.58-1.99.23-3.63-.52-5.04-1.87-1.23-1.18-2.17-2.59-2.82-4.17-.25-.61-.6-.88-1.26-.96-1.31-.16-2.6-.42-3.84-.9-1.36-.53-2.1-1.53-2.09-2.77.01-1.23.76-2.28,2.14-2.72,1.13-.37,2.3-.62,3.48-.84.72-.13,1.12-.43,1.43-1.13,1.76-3.95,4.89-6.11,9.14-6.63,3.49-.43,6.52,1.3,7.47,4.16.21.63.31,1.28.3,1.95Z"/><path class="cls-1" d="m447.7,125.71c-1.53-.05-2.88-.74-3.63-2.3-.77-1.6-.52-3.13.6-4.51.18-.22.38-.45.61-.61,5.85-4.07,10.57-9.44,16-13.98,2.02-1.69,4.02-3.41,6.27-4.81.63-.39,1.28-.74,2.05-.8,1.97-.15,3.39,1.52,2.94,3.44-.17.74-.57,1.36-.98,1.99-2.61,4-5.96,7.36-9.32,10.7-3.19,3.16-6.46,6.25-10.02,8.99-1.28.99-2.63,1.86-4.51,1.89Z"/><path class="cls-1" d="m443.44,116.64c-2.15-.02-3.9-1.62-4.1-3.84-.12-1.36,0-2.72.34-4.04.39-1.53,1.34-2.64,2.91-3.07.75-.21,1.31-.62,1.86-1.14,3.97-3.72,8.13-7.2,12.92-9.85,1.37-.76,2.78-1.43,4.32-1.77,1.3-.29,2.49-.08,3.31,1.07.81,1.14.66,2.34-.04,3.48-.82,1.35-1.9,2.49-3.1,3.49-2.9,2.43-5.84,4.82-8.74,7.25-2.24,1.88-4.38,3.85-5.96,6.37-.91,1.45-2.22,2.07-3.72,2.06Z"/><path class="cls-1" d="m257.83,469.69c0,1.3-.39,2.3-1.48,2.9-1.08.59-2.16.42-3.16-.23-1.22-.8-2.19-1.87-3.05-3.03-4.14-5.57-6.61-11.94-8.81-18.43-.14-.42-.18-.89-.2-1.34-.08-2.09,1.11-3.81,2.98-4.33,1.88-.52,3.84.29,4.8,2.13.55,1.05.92,2.2,1.32,3.33,1.74,4.86,4.17,9.41,6.2,14.15.68,1.6,1.3,3.21,1.4,4.87Z"/><path class="cls-1" d="m414.43,425.54c-5.46-.06-8.29-4.15-6.28-9.23,1.4-3.54,3.8-6.33,6.93-8.48.68-.47,1.44-.8,2.24-1.01,3.47-.92,6.59,1.36,6.64,4.96.03,2.98-1.16,5.53-3.13,7.71-.52.57-.86,1.09-.83,1.93.05,1.48-.76,2.56-1.99,3.33-1.09.68-2.31.82-3.56.81Z"/><path class="cls-1" d="m230.53,453.45c0-2.45,1.21-4.28,3.22-4.88,2.02-.6,4.03.26,5.35,2.33.31.48.6.99.84,1.51,1.96,4.17,3.91,8.34,5.84,12.53.62,1.35,1.17,2.73,1.19,4.25.03,2.76-2.2,4.2-4.7,3.03-1.3-.61-2.25-1.64-3.13-2.74-2.28-2.82-3.57-6.19-5.07-9.43-.47-1.02-.98-1.92-1.93-2.63-1.28-.95-1.63-2.42-1.6-3.97Z"/><path class="cls-1" d="m93.93,103.93c2.14,0,4.28.03,6.42-.01,1.12-.02,2.04.14,2.47,1.35.24.67,1.03.77,1.47,1.26,3.97,4.4,7.95,8.79,11.91,13.2.29.33.49.76.68,1.16.24.49.16.98-.21,1.37-.4.42-.89.56-1.46.36-.64-.22-1.17-.59-1.69-1-1.83-1.42-3.4-3.12-4.93-4.83-2.63-2.94-5.25-5.9-7.84-8.87-.28-.32-.57-.27-.88-.26-4.73.13-9.47.03-14.18.47-1.21.11-2.15-.54-2.28-1.57-.13-1.11.6-1.97,1.9-2.13,2.87-.37,5.76-.19,8.63-.5Z"/><path class="cls-1" d="m354.27,459.51c-1.34-.04-2.4-.32-3.11-1.31-.65-.91-.74-1.92-.22-2.91.51-.96,1.4-1.32,2.47-1.31,1.95,0,3.37,1.19,4.81,2.25.8.59.51,1.74-.48,2.37-1.11.7-2.4.78-3.47.92Z"/><path class="cls-1" d="m36.29,264.33c1.94.09,3.13,1.05,3.56,2.61.42,1.53-.22,3.79-1.3,4.51-.68.45-1.4.5-2.07,0-.75-.57-.94-1.35-.57-2.2.33-.76.41-1.09-.67-1.11-1.37-.03-1.99-1.49-1.19-2.62.62-.88,1.54-1.19,2.23-1.18Z"/><path class="cls-1" d="m261.46,39.61c-.76-.07-1.56-.33-2.22-.95-1.16-1.09-.96-2.72.43-3.51.66-.37,1.39-.48,2.12-.58.45-.06.89-.07,1.24-.44.56-.58,1.23-.87,1.98-.38.78.51.97,1.29.82,2.16-.23,1.34-3.01,3.73-4.37,3.69Z"/><path class="cls-1" d="m458.22,398.96c.09-2.42,1.2-3.8,3.26-4.34,1.15-.3,2.26.41,2.69,1.73.36,1.08-.07,1.96-1.2,2.47-.26.12-.57.07-.64.57-.22,1.62-.77,2.16-1.96,2.1-1.22-.06-2.14-1.14-2.16-2.54,0-.08,0-.16,0,.03Z"/><path class="cls-1" d="m85.44,146.46c.02-1.54,1.17-2.83,2.6-2.95,1.3-.1,2.6.83,2.75,2.12.15,1.22-.32,2.41-.75,3.5-.37.93-1.41,1.02-2.35.69-1.32-.46-2.27-1.9-2.25-3.36Z"/><path class="cls-1" d="m60.16,365.07c-1.9-.01-2.47-.65-2.29-2.57.06-.64-.28-1.19-.36-1.8-.08-.69-.04-1.36.64-1.72.71-.37,1.38-.15,1.88.44.51.6,1.08,1.07,1.75,1.51.98.63,1.15,1.66.83,2.74-.29,1-1.05,1.4-2.46,1.39Z"/><path class="cls-1" d="m100.4,271.88c.04-4.42.13-9.57,1.09-14.65.19-1.01.41-2.02.96-2.92.64-1.04,1.71-1.41,2.63-.94.9.46,1.13,1.38.64,2.58-.98,2.41-1.12,4.97-1.29,7.51-1.18,17.95,1.11,35.41,7.31,52.33,1.24,3.4,2.29,6.87,3.4,10.31.64,2,1.41,3.94,2.45,5.78.88,1.55.81,2.69-.05,3.24-.89.57-2.03.07-3.05-1.38-.78-1.12-1.44-2.33-1.85-3.62-2.78-8.74-6.09-17.31-8.4-26.2-2.66-10.26-3.72-20.73-3.83-32.05Z"/><path class="cls-1" d="m172.31,387.62c.03,1.08-.64,1.86-1.64,1.91-1.64.09-3.25-1.47-3.26-3.16-.01-1.22.91-2.17,2.15-2.22,1.7-.06,2.69,1.18,2.75,3.46Z"/><path class="cls-1" d="m146.18,368.7c1.84.02,3.11,1.56,2.71,3.28-.33,1.43-1.42,1.97-2.79,1.39-.26-.11-.53-.22-.79-.33-1.26-.51-1.92-1.47-1.71-2.51.22-1.1,1.27-1.85,2.58-1.83Z"/><path class="cls-1" d="m123.88,350.82c0-1.44.83-2.5,1.99-2.54,1.12-.03,2.29,1.13,2.31,2.31.02,1.14-1.21,2.52-2.28,2.55-1.15.04-2.02-.96-2.02-2.33Z"/><path class="cls-1" d="m252.67,305.73c-7.26.03-14-1.83-20.23-5.52-.99-.59-1.96-1.22-2.79-2.03-.58-.57-.96-1.23-.88-2.09.08-.82.5-1.4,1.28-1.65.74-.24,1.45-.05,1.87.58.67,1.01,1.66,1.58,2.66,2.15,5.34,3.1,11.09,4.74,17.27,4.85,2.43.04,4.86-.14,7.28.18.86.11,1.72.32,1.77,1.35.05,1.02-.78,1.36-1.62,1.56-2.18.52-4.39.64-6.61.6Z"/><path class="cls-1" d="m322.34,220.01c0,1.01-.02,1.9-1.04,2.15-1.01.25-1.53-.48-1.86-1.27-.64-1.51-1.28-3.04-1.81-4.59-1.89-5.52-6.11-8.14-11.49-9.36-.37-.08-.72-.03-1.1.04-1.11.2-1.96-.29-2.23-1.24-.3-1.04.25-2.09,1.31-2.47.64-.23,1.31-.2,1.95-.08,10.05,1.93,14.38,7.37,16.2,16,.07.32.06.66.08.83Z"/><path class="cls-1" d="m417.31,262.7c.55.03.85-.39,1.23-.63,2.68-1.64,5.47-2.87,8.71-2.72,2.29.1,4,1.02,4.4,2.52.53,2.04-.61,3.41-2.11,4.46-3.44,2.4-7.24,4-11.47,3.06-1.78-.39-2.88-.13-4.02,1.07-.41.43-.93.76-1.41,1.12-.61.45-1.28.6-1.88.05-.68-.61-.5-1.34-.03-1.97.67-.89,1.36-1.78,2.14-2.57.58-.59.72-1.11.51-1.92-.53-2.02-.09-3.93,1.02-5.66.57-.89,1.37-1.52,2.49-1,1.08.5.96,1.49.79,2.46-.11.58-.49,1.1-.35,1.74Zm9.53.67c-2.54-.23-4.56.96-6.53,2.28,2.43-.04,4.59-.84,6.53-2.28Z"/></svg>